<svg fill="none" height="26" viewBox="0 0 27 26" width="27" xmlns="http://www.w3.org/2000/svg"><path d="m5.14696 22.9312c-.01417 0-.02725 0-.04251-.001-.3433-.0174-.68006-.091-1.00047-.22-1.577-.637-2.33771-2.4277-1.69797-3.9942l7.97869-13.89484c.2747-.494.691-.90783 1.1989-1.18733 1.4876-.819 3.3686-.28059 4.1915 1.19708l7.9264 13.78869c.1765.4127.2517.7486.2703 1.0909.0425.819-.2387 1.6044-.7902 2.2122-.5514.6077-1.3089.9663-2.1317 1.0075l-15.82447.001z" fill="#3043ef"/><path clip-rule="evenodd" d="m12.1239 10.8559c0-.5222.4283-.94796.9536-.94796s.9536.42576.9536.94796v3.0636c0 .5233-.4283.9479-.9536.9479s-.9536-.4246-.9536-.9479zm0 6.7698c0-.5254.4283-.9533.9536-.9533s.9536.4225.9536.9414c0 .5341-.4283.9598-.9536.9598s-.9536-.4257-.9536-.9479z" fill="#fff" fill-rule="evenodd"/></svg>