<svg fill="none" height="27" viewBox="0 0 30 27" width="30" xmlns="http://www.w3.org/2000/svg"><path clip-rule="evenodd" d="m29.9947 8.06269h-6.352c-2.956.0052-5.3507 2.34001-5.356 5.22211-.004 2.8887 2.3933 5.2339 5.356 5.2378h6.3573v.4589c0 5.0389-3.0547 8.0185-8.224 8.0185h-13.55067c-5.17066 0-8.22533-2.9796-8.22533-8.0185v-10.97471c0-5.03886 3.05467-8.00679 8.22533-8.00679h13.54537c5.1693 0 8.224 2.96793 8.224 8.00679zm-22.88537-.0117h8.45997.0054.0106c.6334-.0026 1.1454-.50571 1.1427-1.12451-.0027-.61751-.52-1.11672-1.1533-1.11412h-8.46537c-.62933.0026-1.14.50051-1.14266 1.11542-.00267.6175.50933 1.12061 1.14266 1.12321z" fill="#33f" fill-rule="evenodd"/><path d="m21.0561 13.945c.3137 1.4268 1.5646 2.4306 2.9928 2.4045h4.8749c.5942 0 1.0762-.4921 1.0762-1.1004v-3.7974c-.0013-.607-.482-1.1004-1.0762-1.1017h-4.9897c-1.6245.0052-2.9366 1.3537-2.9341 3.0154 0 .1945.0191.389.0561.5796" fill="#33f" opacity=".4"/><circle cx="24" cy="13.35" fill="#fff" r="1.5"/></svg>