<svg fill="none" height="62" viewBox="0 0 54 62" width="54" xmlns="http://www.w3.org/2000/svg"><path d="m21.6827 3.05251c3.2929-1.89033 7.3417-1.89033 10.6346 0l16.3199 9.36879c3.3172 1.9044 5.3628 5.4374 5.3628 9.2624v18.6326c0 3.825-2.0456 7.358-5.3628 9.2624l-16.3199 9.3688c-3.2929 1.8903-7.3417 1.8903-10.6346 0l-16.31987-9.3688c-3.31726-1.9044-5.36283-5.4374-5.36283-9.2624v-18.6326c0-3.825 2.04556-7.358 5.36282-9.2624z" fill="#33f" fill-opacity=".12"/><path d="m32.0683 3.48613 16.3199 9.36887c3.162 1.8152 5.1118 5.1827 5.1118 8.8287v18.6326c0 3.646-1.9498 7.0135-5.1118 8.8287l-16.3199 9.3689c-3.1386 1.8018-6.998 1.8018-10.1366 0l-16.31994-9.3689c-3.16196-1.8152-5.11176-5.1827-5.11176-8.8287v-18.6326c0-3.646 1.9498-7.0135 5.11176-8.8287l16.31994-9.36886c3.1386-1.80184 6.998-1.80184 10.1366-.00001z" stroke="#5c67c8" stroke-opacity=".75"/><g stroke="#3555f7" stroke-linecap="round"><path d="m22 3.33791 1.434-.90111c2.3759-1.492967 5.392-1.512664 7.7872-.05085l18.2362 11.12985c2.2003 1.3429 3.5426 3.7347 3.5426 6.3124v1.1718" stroke-width="1.84879"/><path d="m33 58.5132-1.8997 1.1576c-2.35 1.4318-5.3006 1.4405-7.6589.0225l-18.85708-11.3388c-2.22403-1.3373-3.58432-3.7425-3.58432-6.3376v-1.0169" stroke-width="1.95143"/></g></svg>