<svg fill="none" height="362" viewBox="0 0 335 362" width="335" xmlns="http://www.w3.org/2000/svg"><path d="m31.8718 2.48012c1.5098-1.583834 3.6025-2.48012 5.7906-2.48012h289.3376c4.418 0 8 3.58172 8 8v346c0 4.418-3.582 8-8 8h-319c-4.41828 0-8-3.582-8-8v-314.8829c0-2.0555.791167-4.0321 2.20942-5.5199z" fill="#0e1648" fill-opacity=".42"/><path d="m0 7.71296v-5.71296c0-1.104569.895429-2 2-2h5.76459c1.78615 0 2.67651 2.16325 1.40783 3.42056l-5.76458 5.71296c-1.26251 1.25118-3.40784.35691-3.40784-1.42056z" fill="#fff"/></svg>