<svg fill="none" height="30" viewBox="0 0 30 30" width="30" xmlns="http://www.w3.org/2000/svg" xmlns:xlink="http://www.w3.org/1999/xlink"><clipPath id="a"><path d="m1.76465 1.76465h26.4706v26.4706h-26.4706z"/></clipPath><g clip-path="url(#a)" fill="#fff"><path d="m1.76465 12.1385h8.96215v1.8677h-8.96215zm24.22995-7.45002c.1852.39265.2811.82149.2808 1.25564v4.64338h1.9598v-2.84245c0-1.43137-.9432-2.64628-2.2406-3.05657zm.3364 10.86872v6.1589h-.7755c-.5008 0-.9081.4074-.9081.9081v.7755h-19.2949v-.7755c0-.5008-.4074-.9081-.90812-.9081h-.7755v-6.1589h-1.90423v9.9035h26.47055v-9.9035z"/><path d="m14.9995 17.6045c1.501 0 2.7222-1.2211 2.7222-2.7222v-2.7438h-5.4444v2.7438c0 1.501 1.2212 2.7222 2.7222 2.7222zm-.7875-3.8846h1.551v1.551h-1.551z"/><path d="m6.77829 21.8485h16.44331c.2443-.7332.8252-1.3141 1.5585-1.5584v-4.7332h-5.5607c-.3246 2.0367-2.0928 3.5983-4.2195 3.5983-2.1266 0-3.8948-1.5616-4.2194-3.5983h-5.56061v4.7332c.73321.2443 1.31412.8252 1.5584 1.5584zm-1.50282-15.90465v4.64345h19.44893v-4.64345c0-.77426-.6299-1.40418-1.4042-1.40418h-16.64055c-.77427-.00005-1.40418.62987-1.40418 1.40418zm-3.51082 4.64335h1.9598v-4.64335c-.00036-.43415.09554-.86299.28079-1.25564-1.29737.41029-2.24059 1.6252-2.24059 3.05652zm17.50845 1.551h8.9621v1.8677h-8.9621z"/></g></svg>