<svg fill="none" height="30" viewBox="0 0 30 30" width="30" xmlns="http://www.w3.org/2000/svg"><path d="m8.61013 15.6154c.29007-.1675.64744-.1675.9375 0l3.67747 2.1231c.29.1675.4687.477.4687.8119v4.2464c0 .3349-.1787.6444-.4687.8119l-3.67747 2.1232c-.29006.1674-.64744.1674-.9375 0l-3.67745-2.1232c-.29006-.1675-.46875-.477-.46875-.8119v-4.2464c0-.3349.17869-.6444.46875-.8119z" fill="#777ba0"/><path d="m20.45 15.6154c.29-.1675.6474-.1675.9375 0l3.6774 2.1231c.2901.1675.4688.477.4688.8119v4.2464c0 .3349-.1787.6444-.4688.8119l-3.6774 2.1232c-.2901.1674-.6475.1674-.9375 0l-3.6775-2.1232c-.29-.1675-.4687-.477-.4687-.8119v-4.2464c0-.3349.1787-.6444.4687-.8119z" fill="#777ba0"/><path d="m14.9969 5.77003 3.6774 2.12318v4.24639l-3.6775 2.1231-3.6774-2.1231v-4.24639z" stroke="#777ba0" stroke-width="1.875"/></svg>