<svg fill="none" height="30" viewBox="0 0 30 30" width="30" xmlns="http://www.w3.org/2000/svg"><path d="m10.72 20.2533c-1.04867 0-1.90667.858-1.90667 1.9067s.858 1.9067 1.90667 1.9067c1.0487 0 1.9067-.858 1.9067-1.9067s-.858-1.9067-1.9067-1.9067zm-5.72-15.2533v1.90667h1.90667l3.43203 7.24533-1.3347 2.288c-.09533.286-.19067.6673-.19067.9533 0 1.0487.858 1.9067 1.90667 1.9067h11.44v-1.9067h-11.0587c-.0953 0-.1906-.0953-.1906-.1906v-.0954l.858-1.6207h7.0546c.7627 0 1.3347-.3813 1.6207-.9533l3.432-6.19663c.1907-.19067.1907-.286.1907-.47667 0-.572-.3814-.95333-.9534-.95333h-14.1093l-.858-1.90667zm15.2533 15.2533c-1.0486 0-1.9066.858-1.9066 1.9067s.858 1.9067 1.9066 1.9067c1.0487 0 1.9067-.858 1.9067-1.9067s-.858-1.9067-1.9067-1.9067z" fill="#777ba0"/></svg>