<svg width="15" height="14" viewBox="0 0 15 14" fill="none" xmlns="http://www.w3.org/2000/svg">
<path d="M10.3288 8.3282C10.3288 6.93014 9.4899 6.45079 7.81218 6.25109C6.61381 6.09128 6.37414 5.77174 6.37414 5.21244C6.37414 4.65314 6.77363 4.29372 7.57251 4.29372C8.29153 4.29372 8.69102 4.5334 8.89072 5.13258C8.93069 5.25242 9.05053 5.33228 9.17037 5.33228H9.80943C9.96925 5.33228 10.0891 5.21244 10.0891 5.05272V5.01274C9.92927 4.13391 9.21025 3.45486 8.29153 3.375V2.41631C8.29153 2.25649 8.1717 2.13666 7.972 2.09668H7.37281C7.213 2.09668 7.09316 2.21652 7.05318 2.41631V3.33503C5.85482 3.49484 5.09591 4.29372 5.09591 5.2924C5.09591 6.6106 5.89479 7.12983 7.57251 7.32963C8.69102 7.52932 9.05053 7.769 9.05053 8.40816C9.05053 9.04732 8.49123 9.48669 7.73232 9.48669C6.69367 9.48669 6.33416 9.04722 6.21433 8.44804C6.17444 8.28832 6.05461 8.20836 5.93477 8.20836H5.25563C5.09591 8.20836 4.97607 8.3282 4.97607 8.48802V8.52799C5.13579 9.52657 5.77496 10.2456 7.09316 10.4454V11.4041C7.09316 11.5638 7.213 11.6836 7.4127 11.7236H8.01188C8.17169 11.7236 8.29153 11.6038 8.33151 11.4041V10.4454C9.52988 10.2456 10.3288 9.40673 10.3288 8.3282V8.3282Z" fill="white"/>
<path d="M5.41029 12.5684C2.29452 11.4499 0.696667 7.97467 1.85515 4.89879C2.45434 3.22107 3.77255 1.94284 5.41029 1.34366C5.5701 1.2638 5.64996 1.14396 5.64996 0.94417V0.384963C5.64996 0.225148 5.5701 0.105311 5.41029 0.0654297C5.37031 0.0654297 5.29045 0.0654294 5.25047 0.105311C1.45567 1.30368 -0.62154 5.33826 0.57683 9.13306C1.29585 11.37 3.01355 13.0877 5.25047 13.8067C5.41028 13.8866 5.5701 13.8067 5.60998 13.6469C5.64996 13.607 5.64996 13.567 5.64996 13.4872V12.9279C5.64996 12.808 5.53012 12.6483 5.41029 12.5684ZM9.64456 0.105311C9.48474 0.0254518 9.32493 0.105311 9.28505 0.265126C9.24507 0.305103 9.24507 0.344985 9.24507 0.424941V0.984148C9.24507 1.14396 9.3649 1.30368 9.48474 1.38364C12.6005 2.50205 14.1984 5.97732 13.0399 9.0532C12.4407 10.7309 11.1225 12.0091 9.48474 12.6083C9.32493 12.6882 9.24507 12.808 9.24507 13.0078V13.567C9.24507 13.7268 9.32493 13.8467 9.48474 13.8866C9.52472 13.8866 9.60458 13.8866 9.64456 13.8467C13.4394 12.6483 15.5166 8.61374 14.3182 4.81893C13.5992 2.54203 11.8415 0.824333 9.64456 0.105311Z" fill="white"/>
</svg>
