<svg width="12" height="10" viewBox="0 0 12 10" fill="none" xmlns="http://www.w3.org/2000/svg">
<path d="M1.79471 7.21069C1.86241 7.13679 1.95338 7.09521 2.04858 7.09521H10.8598C11.0205 7.09521 11.1009 7.3077 10.9867 7.4301L9.24561 9.33089C9.17791 9.4048 9.08694 9.44637 8.99174 9.44637H0.180563C0.019783 9.44637 -0.0606071 9.23389 0.0536314 9.11148L1.79471 7.21069Z" fill="white"/>
<path d="M1.79471 0.115479C1.86241 0.0415725 1.95338 0 2.04858 0H10.8598C11.0205 0 11.1009 0.212482 10.9867 0.33489L9.24561 2.23337C9.17791 2.30728 9.08694 2.34885 8.99174 2.34885H0.180563C0.019783 2.34885 -0.0606071 2.13637 0.0536314 2.01396L1.79471 0.115479Z" fill="white"/>
<path d="M9.24561 3.63989C9.17791 3.56599 9.08694 3.52441 8.99174 3.52441H0.180563C0.019783 3.52441 -0.0606071 3.7369 0.0536314 3.8593L1.79471 5.75778C1.86241 5.83169 1.95338 5.87326 2.04858 5.87326H10.8598C11.0205 5.87326 11.1009 5.66078 10.9867 5.53837L9.24561 3.63989Z" fill="white"/>
</svg>
