<svg width="12" height="11" viewBox="0 0 12 11" fill="none" xmlns="http://www.w3.org/2000/svg">
<path d="M1.85916 7.9874C1.92686 7.91349 2.01783 7.87192 2.11303 7.87192H10.9242C11.085 7.87192 11.1654 8.0844 11.0511 8.20681L9.31006 10.1076C9.24236 10.1815 9.15139 10.2231 9.05619 10.2231H0.245016C0.0842361 10.2231 0.00384599 10.0106 0.118085 9.88819L1.85916 7.9874Z" fill="white"/>
<path d="M1.85916 0.892365C1.92686 0.818459 2.01783 0.776886 2.11303 0.776886H10.9242C11.085 0.776886 11.1654 0.989368 11.0511 1.11178L9.31006 3.01025C9.24236 3.08416 9.15139 3.12573 9.05619 3.12573H0.245016C0.0842361 3.12573 0.00384599 2.91325 0.118085 2.79084L1.85916 0.892365Z" fill="white"/>
<path d="M9.31006 4.41678C9.24236 4.34287 9.15139 4.3013 9.05619 4.3013H0.245016C0.0842361 4.3013 0.00384599 4.51378 0.118085 4.63619L1.85916 6.53467C1.92686 6.60858 2.01783 6.65015 2.11303 6.65015H10.9242C11.085 6.65015 11.1654 6.43767 11.0511 6.31526L9.31006 4.41678Z" fill="white"/>
</svg>
