<svg fill="none" height="15" viewBox="0 0 16 15" width="16" xmlns="http://www.w3.org/2000/svg"><path d="m8 12.5359-3.94069 2.3339c-.16469.1002-.33526.1425-.51171.1271-.17644-.0154-.33133-.0732-.46464-.1733-.13332-.1001-.23527-.2272-.30585-.3813-.07058-.154-.08234-.3235-.03529-.5083l1.04693-4.40206-3.481925-2.95779c-.149001-.13094-.2431073-.27922-.2823182-.44482-.0392109-.16561-.03136871-.32544.0235265-.47949.0548957-.15405.1470407-.28499.2764367-.39283s.292121-.17331.488176-.19642l4.587674-.39283 1.78801-4.147836c.07843-.177159.19214-.308103.34114-.392831.149-.0847288.30584-.127093.47053-.127093s.32153.0423642.47053.127093c.149.084728.26271.215672.34114.392831l1.78803 4.147836 4.5877.39283c.196.02311.3587.08858.4881.19642s.2216.23878.2765.39283.0627.31388.0235.47949c-.0392.1656-.1333.31388-.2823.44482l-3.482 2.95779 1.047 4.40206c.047.1848.0353.3543-.0353.5083-.0706.1541-.1725.2812-.3059.3813-.1333.1001-.2882.1579-.4646.1733-.1765.0154-.347-.0269-.5117-.1271z" fill="#777ba0"/></svg>