<svg width="16" height="16" viewBox="0 0 16 16" fill="none" xmlns="http://www.w3.org/2000/svg">
<path fill-rule="evenodd" clip-rule="evenodd" d="M1.70255 0.484833H14.2975C15.2381 0.484833 16 1.24587 16 2.18545V3.37349C16 3.82929 15.8163 4.26699 15.4901 4.58622L10.2861 9.69052C10.1963 9.77938 10.0744 9.82874 9.94842 9.82792L5.59115 9.81476C5.45853 9.81476 5.33251 9.75963 5.2419 9.66337L0.459614 4.56318C0.163912 4.24807 0 3.83176 0 3.39982V2.18627C0 1.24669 0.761905 0.484833 1.70255 0.484833ZM5.82406 11.2092L9.70772 11.2207C9.94988 11.2215 10.1459 11.4181 10.1459 11.6592V13.7778C10.1459 14.0197 10.0042 14.2385 9.78349 14.3397L6.25814 15.9449C6.17577 15.9819 6.08846 16 6.00115 16C5.88501 16 5.76888 15.9671 5.66756 15.9021C5.49047 15.7886 5.38339 15.5927 5.38339 15.3829V11.6477C5.38339 11.405 5.58108 11.2083 5.82406 11.2092Z" fill="white"/>
</svg>
