<svg width="27" height="27" viewBox="0 0 27 27" fill="none" xmlns="http://www.w3.org/2000/svg">
<path fill-rule="evenodd" clip-rule="evenodd" d="M7.64935 27H19.3493C23.9262 27 27 23.7895 27 19.0124V7.98757C27 3.21045 23.9262 0 19.3507 0H7.64935C3.07381 0 0 3.21045 0 7.98757V19.0124C0 23.7895 3.07381 27 7.64935 27ZM8.77346 12.15C6.91229 12.15 5.4 10.6357 5.4 8.775C5.4 6.91434 6.91229 5.4 8.77346 5.4C10.6333 5.4 12.1469 6.91434 12.1469 8.775C12.1469 10.6357 10.6333 12.15 8.77346 12.15ZM24.0581 17.4608C24.5102 18.6199 24.2753 20.0131 23.792 21.1611C23.2191 22.5264 22.1223 23.5602 20.7403 24.0116C20.1267 24.2122 19.4832 24.3 18.8411 24.3H7.46367C6.33149 24.3 5.32964 24.0283 4.50833 23.5226C3.99383 23.2049 3.90287 22.4721 4.28434 21.997C4.92238 21.2029 5.55227 20.406 6.18759 19.6021C7.39851 18.064 8.21438 17.6182 9.12121 18.0097C9.4891 18.1713 9.85835 18.4137 10.2385 18.6701C11.2512 19.3583 12.6589 20.3043 14.5133 19.2775C15.7823 18.5668 16.5183 17.3476 17.1593 16.286L17.17 16.2682C17.2154 16.1937 17.2604 16.1193 17.3053 16.045L17.3053 16.045C17.5207 15.6886 17.7333 15.3369 17.9737 15.013C18.275 14.6075 19.3923 13.3397 20.8394 14.2425C21.7612 14.8109 22.5363 15.58 23.3658 16.4034C23.6821 16.7182 23.9074 17.0763 24.0581 17.4608Z" fill="#3333FF"/>
<path fill-rule="evenodd" clip-rule="evenodd" d="M8.76604 12.1752C6.90487 12.1752 5.39258 10.6608 5.39258 8.80017C5.39258 6.93951 6.90487 5.42517 8.76604 5.42517C10.6259 5.42517 12.1395 6.93951 12.1395 8.80017C12.1395 10.6608 10.6259 12.1752 8.76604 12.1752" fill="white"/>
</svg>
