<svg fill="none" height="26" viewBox="0 0 98 26" width="98" xmlns="http://www.w3.org/2000/svg"><path d="m60.084 5.58625h2.882c1.58 0 2.7047.13815 3.374.41445.6732.27881 1.2391.76022 1.616 1.37496.4206.68757.6329 1.47863.612 2.28046.0321.82128-.2018 1.63138-.668 2.31388-.5123.668-1.224 1.1623-2.036 1.4142l3.386 6.2462h-2.966l-3.222-5.9496h-.25v5.9496h-2.728zm2.72 5.48805h.854c.864 0 1.4593-.112 1.786-.3359.328-.2219.49-.5893.49-1.10978.0083-.28448-.0734-.56449-.234-.8014-.1603-.22483-.3873-.39563-.65-.48909-.2667-.09821-.764-.14732-1.492-.14732h-.746zm11.946-5.48805h2.722v11.49075h3.964v2.5534h-6.686zm11.29 0h3.224c2.0787 0 3.622.25273 4.63.75819s1.84 1.32847 2.496 2.46903c.676 1.22293 1.0146 2.59823.982 3.98933.0112 1.0192-.1754 2.0312-.55 2.9817-.3281.8532-.8452 1.6241-1.514 2.2569-.5905.5667-1.3065.9916-2.092 1.2414-.7547.2318-2.056.3476-3.904.3476h-3.272zm2.702 2.57706v8.85669h1.262c1.244 0 2.1467-.1395 2.708-.4184.5974-.3186 1.078-.8132 1.374-1.4142.3782-.761.5615-1.6011.534-2.4474 0-1.4915-.424-2.6478-1.272-3.46887-.764-.73855-1.992-1.10782-3.684-1.10782zm-52.272-2.57706-2.046 8.96275-1.2-4.1445-1.284-4.81825h-2.61l-3.22 14.04415h2.676l2.046-8.9627 1.2 4.1425 1.284 4.8202h2.61l3.22-14.04022zm12.386-.35356c.9741-.01071 1.9401.17559 2.8378.5473s1.7079.92088 2.3802 1.61335c.7086.68469 1.2676 1.50414 1.6428 2.40824.3752.90412.5586 1.87382.5392 2.85002.0201.9652-.1606 1.9244-.531 2.8187-.3703.8943-.9226 1.705-1.623 2.3825-.6749.6868-1.4864 1.23-2.384 1.596-.8976.3659-1.8623.5468-2.834.5313-2.1453 0-3.928-.7287-5.348-2.1862-.6874-.6837-1.2297-1.4946-1.5954-2.3858-.3656-.8912-.5474-1.8449-.5346-2.8056-.0055-.9657.1833-1.923.5557-2.81676.3724-.89378.921-1.70645 1.6142-2.39132.6933-.68486 1.5175-1.22841 2.4254-1.59939.9078-.37099 1.8814-.5621 2.8647-.56234zm-.03 2.61242c-.6227-.01392-1.2414.09977-1.8168.3338s-1.0949.58327-1.5252 1.02544c-.9013.90355-1.352 2.05195-1.352 3.44525 0 1.5517.5673 2.78 1.702 3.6849.8558.6983 1.9374 1.0738 3.05 1.0587.6169.0092 1.229-.1083 1.797-.3451.5679-.2368 1.0792-.5876 1.501-1.0299.4474-.4458.7987-.9757 1.0331-1.5578.2343-.5821.3469-1.2047.3309-1.8304.0139-.627-.1005-1.2504-.3365-1.8331-.2361-.5827-.5889-1.1129-1.0375-1.55916-.4272-.44949-.9458-.80576-1.5223-1.04568-.5764-.23992-1.1977-.35812-1.8237-.34695zm-33.044-1.57138c-1.3476-1.70834-3.2047-2.96086-5.312-3.58274l.54-2.357072-1.50801-.333918-.54 2.35707-.338 1.48888c.51152.06555 1.01614.17532 1.50801.32802 2.2052.68322 4.0598 2.17072 5.182 4.1563.7472 1.31125 1.1384 2.78923 1.136 4.29183-.0032 2.3442-.9521 4.5916-2.6389 6.2502-1.6869 1.6585-3.97422 2.5929-6.36111 2.5986-.41681-.0002-.83311-.0284-1.246-.0844-.5157-.069-1.0243-.1821-1.52-.3379l-.338 1.483-.54 2.3571 1.504.3319.54-2.357c.52498.0774 1.05513.1162 1.586.1158 1.97215.0003 3.90481-.5425 5.57861-1.5668s3.0217-2.489 3.8905-4.2278c.8687-1.7388 1.2237-3.682 1.0244-5.609-.1992-1.92695-.9446-3.76044-2.1515-5.29225zm-8.34401-.98211c-1.47112.00078-2.90901.42975-4.132 1.23272-1.223.80298-2.17625 1.94393-2.739311 3.27872-.56306291 1.33474-.710684 2.80354-.424214 4.22064.28647 1.4172.994175 2.7192 2.033715 3.7415 1.03955 1.0223 2.36428 1.7191 3.80685 2.0023 1.44258.2833 2.93827.1403 4.29817-.4109 1.3598-.5512 2.5228-1.4859 3.3421-2.6859.8192-1.2001 1.2579-2.6117 1.2607-4.0565.0021-.9607-.1891-1.9124-.5626-2.8003-.3735-.88795-.9219-1.69467-1.6138-2.37383-.6919-.67915-1.5136-1.21736-2.418-1.5837-.90428-.36634-1.87338-.55359-2.85161-.551z" fill="#fff"/></svg>