<svg fill="none" height="2282" viewBox="0 0 3827 2282" width="3827" xmlns="http://www.w3.org/2000/svg"><g fill="#132a60"><path d="m1399.34 66.6707-65.63 17.0731-14.08 35.7682-15.28-9.305-41.05 23.988 16.39 17.073-23.39 22.451-63.4 12.891 5.88 31.67 36.36 7.769-51.63 11.012 18.77 43.451 76.3 8.024-5.89 116.354 18.78 18.781-24.5 19.634v23.646h32.86l-23.47 39.951-23.47 12.891 15.28 100.902 23.47 33.122 34.13 26.976 58.72-115.244 52.74-15.281 34.56-38.756 97.38-39.183-53.94-6.573 9.39-35.171 26.96 31.671 17.59 2.39v-30.561l-24.33-41.402 30.47 2.39 18.77-16.476 9.39-60.951-11.77-21.17 25.6 3.5 5.29-21.086-18.78-13.232 91.49-122.243-35.25-23.903-75.78 48.403 32.6-48.403-32.68 14.512 5.12-14.512-55.9 5.72 101.64-29.9638-25.6-21.0853-11.7-7.0854-64.09 7.0854 61.7-19.8049-68.27-15.4512-26.97 15.4512-28.33-5.122-32.77 17.0732s21.08 40.2928 17.58 43.1098-24.66 0-24.66 0l-5.89-42.683-14 32.5244-22.27-.939z"/><path d="m1153.04 2196.38 8.19 11.69-18.77 10.59h-22.28l4.7-11.1z"/><path d="m1379.45 2233.94 5.8 21.08 10.59-10.5z"/><path d="m783.006 1240.19 24.578-4.18 12.972-4.61 11.094 4.61 24.067 8.28 3.499 8.2 15.873 4.69-8.79 9.99h3.499l15.276-2.99 11.692 2.99 12.289-6.49-19.97-11.44-24.578-13.23h-14.679l-8.193-9.9h-14.678l-8.79-4.7-15.276 4.1-14.594 5.29z"/><path d="m883.876 1290.05-8.278-8.79-20.482 4.35 10.582 7.34h9.388z"/><path d="m985.347 1287.06v5.89h19.883l2.39-11.69z"/><path d="m933.118 1267.17-12.886-2.99-3.499 2.99 8.193 5.29 4.693 8.8h-12.374-14.593l6.4 8.79h23.213l6.23-25.01z"/><path d="m962.391 1272.46-7.596-5.29-14.337-2.99-1.963.86-6.23 25.01h.256l5.889 8.19 10.497-11.18h25.858l3.499-5.8z"/><path d="m790.601 1373.88 9.388-48.4-3.072-1.11-53.339 32.18 14.167 12.72 2.56 5.8h31.321z"/><path d="m791.625 1375.07h-31.32l8.022 18.78 25.773 15.28 4.694 1.88 8.022-18.1z"/><path d="m714.648 1312.93-8.534-20.24 18.775 1.11 22.359-5.03 1.11-4.01 16.471-39.87-8.278-5.89-35.161 10.59-19.97 35.17-37.464-2.39-29.358-33.98 9.814-58.22-20.396-8.96-20.823-47.81-23.725 8.2-30.467-36.54h-52.826l-46.852-22.11-27.992-3.67 6.827 28.68 17.58 43.03h-15.19l23.383 21.17 15.276 29.28 22.274 25.78 5.889-11.7-17.581-26.37-10.582-33.47-19.884-26.97v-26.64l19.884 2.99 12.887 45.93 24.663 21.17 31.662 66.84-8.193 23.48 76.21 44.9 38.744 16.22 19.885-10.42 23.639 19.12 7.51-19.37z"/><path d="m724.886 1293.8-18.775-1.11 8.534 20.24h-18.434l-7.51 19.37 15.106 12.3 12.118 2.13 15.959-16.64-4.438-36.8z"/><path d="m737.859 1321.72 9.388-32.95-19.799 4.52 4.437 36.8 8.876-9.22z"/><path d="m715.928 1346.73 20.738 3.67 6.912 6.15 15.362-9.22-31.235-12.89z"/><path d="m767.132 1313.18-26.37 7.69-13.057 13.57 31.234 12.89 37.977-22.96z"/><path d="m955.224 1491.85 30.126-2.98-7.084-55.15-53.935-14.6-3.755-36.96 19.97-21.09-4.523-3.58-52.741 24.67-11.777 24.58-25.773-16.39-35.161 7-3.755-4.44-8.022 18.1 26.968 11.01 7.083-10.58 12.887-12.89 8.193 11.69 11.777 42.26-23.64 40.46 109.237 63.94z"/><path d="m890.278 1521.22-48.218-28.26-1.024 1.8-21.079 36.36 10.496 19.98-6.656 5.72 21.335 16.56z"/><path d="m945.407 1626.73-30.467-6.4-6.742-31.67 24.067-24.67h18.433l-1.109-8.03-59.312-34.74-45.146 52.16-21.335-16.56-10.923 9.47 29.357 38.76 36.355 75.12 38.66 29.28 31.832 28.51 15.105-13.23v-74.52z"/><path d="m1025.8 1481.87-9.39-21.69 46.34-10.58-6.23-14.09 13.49-25.52-33.12-23.14 4.7-11.78h-83.295l-17.751-14-19.97 21.09 3.755 36.96 53.935 14.6 7.084 55.15-.598.08 16.98 14z"/><path d="m1074.44 1485.96 11.18 12.3 28.17-13.49-17.67-32.53 8.79-13.83h-1.11l-31.66-26.97-2.13-1.45-13.49 25.52 6.23 14.09-1.79.42 13.48 11.27z"/><path d="m1120.19 1476.57 18.77 5.55 3.5-18.44-6.4-15.28 6.91-9.99h-38.06l-8.79 13.83 17.67 32.53-.52.25 6.92 2.74z"/><path d="m1149.54 1487.76 17.07-22.63-20.65-26.72h-2.99l-6.91 9.99 6.4 15.28-3.5 18.44-1.71-.51 3.5 6.15z"/><path d="m975.363 1758.71 14.679 35.85 13.998-14.08h44.03l6.4-27.58 29.36-7.68 13.49 7.68 9.38-14.94-13.48-30.22-20.48-2.98-5.89-27.58-50.44-20.48-9.39-27.07-43.69 19.55.853 1.03v74.52l-1.28 1.11 11.862 18.27z"/><path d="m1002.33 2223.35-5.887-26.97-12.289 4.1-2.902-27.58 8.193-4.69-1.793-73.33-14.081-41.06 3.499-46.95-3.499-41.58 6.486-31.16-10.582-31.67 5.888-36.45 9.388-21-2.39-29.36 15.276-21.09-2.987-4.61-4.608 4.61-14.679-35.85-.597-14.6-11.862-18.27-13.826 12.12 2.219 2.05 1.195 153.66-8.193 102.1 4.609 44.56 15.276 18.78-3.499 36.37-4.694 25.86-11.692 12.89 10.497 21.09 11.777 52.24 30.467 47.46 41.05 26.98h31.66l5.89-6.32-35.76-52.33z"/><path d="m1106.7 1819.74v14.69l-7.59 14.08h32.25l17.58-47.55-14.67 2.39-5.89-23.47-21.68 1.19-8.53-29.53-.86 1.36-13.48-7.68-29.36 7.68-6.23 26.64 19.8 22.02z"/><path d="m1106.7 1932.43 6.66 8.11 47.88 14.17 16.55-29.37-61.1-41.66z"/><path d="m1157.14 1842.62v-14.08l-14.94-9.39-10.83 29.36h-32.26l7.59-14.08v-14.69l-38.66-18.18-19.8-22.02-.17.94h-44.03l-9.391 9.47 2.986 4.61-15.276 21.09 2.39 29.36-9.388 21-5.888 36.45 10.582 31.67-6.486 31.16 3.499 41.58-3.499 46.95 14.082 41.06 1.792 73.33-8.193 4.69 2.902 27.58 12.289-4.1 5.889 26.97h37.55l35.76 52.33 10.49-11.27-56.24-62.14 28.17-63.34-28.17-16.48 21.08-18.78 15.28-44.56-18.78-18.78 28.17 5.89v-35.26l52.74-10.5 7.08-31.67-25.86-29.36 3.76 1.11-6.66-8.11 9.99-48.75 2.56 1.8 6.82-14.09z"/><path d="m1359.49 1570.99-80.99-32.78-59.74-15.88-36.36-15.88 3.5-16.39-19.29-24.93-17.06 22.63h-8.79l-3.5-6.15-17.07-5.04v11.19l-6.91-2.74-27.65 13.24-11.18-12.3v-24.67l-13.49-11.27-44.55 10.16 9.39 21.69-24.06 21.08-16.987-14-29.528 2.9-3.926 65.05-1.707-.94 1.11 8.03h-18.434l-24.066 24.67 6.742 31.67 30.466 6.4 17.922 22.45 43.698-19.55 9.38 27.07 50.44 20.48 5.89 27.58 20.48 2.98 13.49 30.22-8.54 13.58 8.54 29.53 21.67-1.19 5.89 23.47 14.68-2.39-6.74 18.19 14.93 9.39v14.08l-31.06 28.77-6.83 14.09 58.54 39.86 39.77-70.43v-26.97l77.41-41.06 25.77-63.34v-59.84l51.63-64.54z"/><path d="m377.72 556.159-26.371 14.085-28.76-38.756 135.095-241.842-1.365-1.195-18.775-22.11-45.743-28.17h-12.887l-8.192-26.976-25.859-21.085-58.629 12.89-56.325 32.866-21.079-7.086-15.276 18.781 5.888 48.146 21.079 23.391-26.967 10.585-18.775-8.195 12.971-11.781-12.971-9.305-55.131 16.391 4.694 42.853 17.666 7.598 39.854-7.598-15.276 34.574-52.741 8.195-38.7449 31.67v46.952l23.4688 4.695-8.1927 35.17 30.4668 9.391h11.777l-46.9376 44.646-85.6824 33.976 10.5823 5.89 38.7448-7.085 93.7899-51.561 41.049-19.976-14.081-16.39 32.856-18.781 25.858-8.195-26.967 41.061 36.355-12.976 11.692-22.28 32.856 19.976 51.631 37.561 21.08 64.536 18.689 59.842 21.165-17.074z"/><path d="m1011.38 882.342-31.494 25.609-52.57 19.122.512 1.964-9.388 8.536-11.691-4.353-15.277 4.353-4.096 6.659 4.096 3.329-44.548 19.976-8.534-10.586 11.095-1.707 4.779-3.756 3.328-19.122h-1.621l-5.292-11.781-6.485 7.086s-4.097-4.695-5.804-4.695c-1.706 0 8.534-9.988 8.534-9.988l3.499-11.183-17.068-6.402-11.777 7-7.595 14.085-1.792 21.683-16.386 18.78-5.888-7.597 11.435-31.671-3.84-11.78 15.276-17.074h33.454l-9.985-11.695-18.775 4.695-13.484-8.536 3.499-11.098-35.502 14.854-15.276-9.39 27.65-14.256-40.537-19.805-321.138-30.391 3.158 5.208-28.163 2.305-5.888 56.341-22.275 59.756v57.451l17.581 58.132 31.661 26.38 2.475 10.42 28.077 3.67 46.853 22.11h52.826l30.467 36.53 23.724-8.53 20.824 47.8 20.396 8.54 6.571-39.19 43.439-14.76 30.467 7.08 14.081-7.08-2.304-9.39 62.128 5.89 18.775 10.58-1.195 24.59 15.276 35.25 12.887-7.08 2.389-28.51-9.387-59.08 62.128-42.17 10.582-59.75 1.451-1.37 5.547 22.96 10.583-17.07-4.011-17.074 2.133-2.134 1.878 12.548 15.873-19.889-2.219-7.427 3.926-3.756 41.049-12.293 3.584-25.61 40.449-18.695v-34.146z"/><path d="m340.17 680.793 22.274 5.292-11.094 47.122-11.18-16.902z"/><path d="m371.833 757.622-4.694 11.183 23.469 26.719 12.887 7c4.693-7-18.178-34.146-18.178-34.146z"/><path d="m635.791 266 22.274 33.207 53.936-38.756 50.436-5.89-8.192-41.061-61.019-10.841-6.998 23.304z"/><path d="m762.436 266h-39.854l-28.163 22.451s-2.304 7.256 0 10.756 33.539 5.805 33.539 5.805l-41.305 8.025v16.646h38.147l14.594 24.671-52.741-16.476-5.889 16.476 18.775 15.195v28.171h34.137l39.342-22.11 10.582 28.171h31.662l-8.534-21.086 22.359 8.537v-18.098l-12.972-32.866 17.666-51.817-15.276-22.451-25.602 57.793 4.693-42.086z"/><path d="m917.076 266c-3.499 1.537-31.661 12.037-31.661 12.037s-35.161 18.78-32.771 21.17c2.389 2.391 25.602 60.439 25.602 60.439l26.968-24.841 11.862-35.598z"/><path d="m982.957 288.451-39.854-11.524-25.859 43.366 7.083 14.512 16.386-21.768 9.387 13.146z"/><path d="m821.068 153.658c-3.499-1.195-53.935 38.671-50.436 36.366s25.602 35.854 25.602 35.854l56.837-7.768 15.362 7.768 26.967-36.11h-24.578l9.388-36.451h-16.898l-15.191 42.683-15.361-5.89z"/><path d="m832.76 111.488h-22.189l-61.018 26.976 12.886 24.585 55.13-19.293z"/><path d="m894.972 111.488-42.329-5.89 4.779 31.67h22.359z"/><path d="m917.244 80.9268-4.694 30.5612-32.771-15.2807z"/><path d="m909.054 179.354v35.341h19.97l-11.777 28.854h18.775l31.662-53.781-29.272-10.414v23.305l-21.165-6.659z"/><path d="m967.682 80.9268-24.578 40.5492h24.578l-5.803 41.573h21.079l16.471-51.561z"/><path d="m1026.4 143.756-17.58-22.28-9.391 32.183 13.481 9.39z"/><path d="m1026.4 179.354-32.859-16.305v16.305l19.369 10.756z"/><path d="m978.263 179.354v32.097l21.164 5.634-5.888 26.464-10.583 22.451 26.964 16.732 55.13 10.585 28.17-4.866v-33.89l-31.66-3.671-51.64-14.597 12.89-24.842-23.383-15.451z"/><path d="m978.264 236.293-10.582 29.707-17.58-15.11 14.081-24.927z"/><path d="m863.311 388.329 10.497 31.671-10.497 10.585-29.272-21.085z"/><path d="m1031.09 305.866h-31.661l-43.439 53.78-5.888 34.574 43.438 21.085 37.55 9.39 14-21.085 12.97 38.756 24.58 36.366-28.17 38.67-6.99 17.586-34.57-10.5-13.481 31.671h31.661l24.58 14.085 12.89 24.585 38.74 25.866-14.08-39.951 30.47 21.171 10.58-25.866-23.47-48.061 15.28-10.586 21.07 45.757 36.36-46.952-52.74-45.756 21.08-17.585-18.78-43.366-28.16-30.561-11.69-19.293h-42.25l8.2-46.609-32.77 7.256-13.49 14.512-13.481 46.524-5.889-21.683 16.39-35.853z"/><path d="m1066.85 313.036v34.232h33.37l-7-25.78z"/><path d="m1066.85 474.037-13.48-10.756-22.28 10.756 4.7 22.28z"/><path d="m938.412 513.902-21.165 29.366-8.193 18.695 14.679 12.976 26.37-18.78 17.581 11.695 10.582-23.476z"/><path d="m1035.78 225.963 31.07 10.33 33.37 7.256 32.85-17.586-5.8-14.512 36.36-15.11 30.46-32.951-10.58-19.292h39.94l34.99-32.61 52.74-15.2807s1.19-18.7805 0-15.2805 38.74-16.3902 38.74-16.3902l-9.38-25.6098-37.55-24.4146-54.96-14.5122-73.91 12.8902-52.74 17.5854-4.69 42.2561 45.74 23.4756-5.89 9.3907-43.18-24.6712-7.08-42.6829h-12.89l-32.86 35.4268-11.43 37.5613 17.92 10.5h-24.07l-2.3 41.061h26.37l17.07 8.536-34.65 31.33z"/><path d="m832.758 259.341 8.278 23.391 21.079-11.695v-11.696z"/><path d="m1175.92 815.415-12.89 4.695-15.53 23.305-21.68 32.439 5.89 4.951h12.89l20.48-3.159 11.18 3.159-18.78 12.037 8.54 5.292 17.58-17.073-4.7 10.329 13.49 7s10.58-22.878 8.53-22.878c-4.37-1.116-8.67-2.484-12.89-4.097l3.59-22.878h-28.42v-9.391z"/><path d="m1168.32 773.585-22.36-15.963-25.6-30.22 14.08-11.097-25.6-70.683-23.47 41.915-28.16-10.586 4.69-43.366-17.58-12.89-8.53-22.28-48.136-9.988-11.692 57.195-18.775 29.878 14.081 34.915-11.521 20.573-32.856 10.841 1.194 53.695-24.663 7-10.497-24.073 12.886-41.915-32.856-5.548-46.937-44.903-26.968 9.049 8.534-49.512-15.191-1.451 61.019-76.317 31.662-22.281 39.854-21.085 15.276-19.976 42.158-11.695 12.972-16.476-4.693-25.609h13.479l8.54-16.476-31.663-18.781-12.118 19.891-29.272 36.366-4.694-24.586 3.499-31.756-19.97 23.476-4.694-23.476 11.863-28.171-5.889-46.951-34.136 19.378s-15.191 31.073-11.692 33.378 18.775 18.781 18.775 18.781l-15.276 28.171-21.079 23.475-10.583-37.561-22.53 15.281-38.745-9.391-10.24-30.561h-27.822l-11.777 34.147-11.691-19.976-36.27 1.11-15.277-14.085 18.776-3.5-5.889-28.171-49.242-34.147-21.079 9.391-17.58-9.391v-42.682l-101.3 29.878-37.38-34.147-135.095 241.842 28.76 38.756 26.371-14.086 17.58 107.305-21.165 17.074 13.826 65.646 34.136 57.024 320.968 30.39 40.537 19.805 28.077-14.512 11.777 3.5 16.813 14.683 2.389 21.085 36.355 13.574 12.289 18.439-9.984 7.939-12.887-12.293-3.499 26.976h-7.595l-3.329 19.122 10.753-8.537 9.132 2.988 11.692-2.988 1.792 1.366 4.096-6.659-5.888-8.536 21.164-5.208 6.401 4.098 3.926-6.488 8.534-3.5 2.389 9.134 52.57-19.122 31.49-25.609h19.12v34.146l5.29-2.39 4.69 23.475 26.97-16.475 48.05-20.488-5.89-10.927-21.08 10.927-24.66-4.695-7-24.5 21.08-10.415-14.08-17.073-60.34 34.146 35.76-34.146 19.88-14.683 61.02 4.098 36.36-13.488 18.77-17.586zm-534.917-152.89-6.486 12.293-22.872-3.5v-5.293l16.386 1.195 7.169-10.756 17.068-4.695 19.372 11.183zm61.275 17.585c3.92-.301 7.857-.301 11.777 0l-11.777 22.878s-4.95-1.792-5.548-2.987c1.105-6.816 2.965-13.487 5.548-19.891zm0 42.683v-12.207l15.617-15.793 9.388 11.695-16.471 3.5v12.635l-16.556 13.231-2.987-8.536zm6.742 90.317-8.535 13.83-5.547-3.073 8.534-18.013-11.179-1.195v-5.89h17.068zm1.792 37.305c-.614-8.525-.614-17.084 0-25.609l4.693-3.074-1.45 14 3.84 11.183c-2.253 1.328-4.624 2.442-7.083 3.33zm18.775 0v-31.329h-6.486l-4.694-13.402 4.694-8.537h-12.289l-14.082-11.695 4.097-12.89h13.228l-2.731 13.146 5.291 5.89 6.998-11.78 10.582 4.695v31.671l4.694 28.17zm228.116 45.756 9.388-5.89 5.291 11.183zm38.148-38.756-17.068 7.342v-7.342l17.068-7zm46.339-46.353-9.39-7.598 8.54-12.89 10.58 6.402zm67.42 4.695h-20.48l2.3 20.488-12.88-25.61 6.99-7.598 24.07 2.903z"/><path d="m3310.89 666.793-10.49 17.585 10.49 33.464 15.02 14.085 12.29 51.902 11.44 28.171 7.93 21.939 3.5-16.732 12.29 8.878v-12.378l-19.28-13.146-5.3-34.317 19.29 7.939-15.79-23.817-21.08-35.171-6.23-16.731z"/><path d="m3412.11 852.464h8.79l17.58-18.525v-11.439l-18.44 11.439z"/><path d="m3445.47 827.793 10.59-16.732-5.29-5.207-8.79 21.939z"/><path d="m1904.39 313.037 14.93-68.634 15.79-5.208-30.72-31.756-13.23-11.439-7.08 4.439 3.58 34.317-10.58-29.024-9.65-3.586-20.22 14.171 20.22 33.378 6.15 9.732 8.79-4.866-2.65-13.658 23.73 13.658-29.87 11.012 12.29 26.378z"/><path d="m1940.4 243.549h-13.14l6.57 14.939 1.28 25.524 15.02-10.585v15.024l16.04-22.451-19.45-3.927v-10.585l-11.61 3.073z"/><path d="m1927.26 179.354h-17.67l-8.79 16.646 13.23 11.439 16.72-4.354-14.93 9.647 14.93 8.792 15.96 4.44 19.46-8.793 4.01-29.025-23.47-8.792-11.26 12.292-8.19-3.5z"/><path d="m2090.86 154.683 20.48 7.939 3.24-18.866h9.05l-5.55-10.244h-10.84z"/><path d="m2117.23 172.268 12.29 7.086 6.4-16.732 11.18-14.512-14.94-14.598-8.53 14.598z"/><path d="m2161.18 162.622 15.87-6.232 12.29 6.232 8.79-3.073 8.79-11.439-14.93-8.366-12.29 8.366-22.02-4.354z"/><path d="m2217.5 119.512-15.87 6.147 5.29 22.451 14.93-8.366-10.07-9.732 10.07-4.353z"/><path d="m2229.79 94.8416h-12.29v14.9394l12.29 15.024 7.94-15.024z"/><path d="m2182.34 98.3416h-14.08v11.4394l-7.94 9.731v14l11.01 6.232h11.01l9.64-14.939-15.78-15.024z"/><path d="m2217.5 156.39-5.72-5.207-10.15 11.439 7.93 5.293z"/><path d="m2147.1 167.915h-7.85l7.85 11.439 10.58-5.72z"/><path d="m2182.34 83.4025h-14.08l7 11.439h7.08z"/><path d="m2448.01 38.5-14.08 29.1098 7 21.5121 27.31 5.7196 16.72-22.8781z"/><path d="m2496.4 73.7561-21.17 24.5854v15.0245l21.17 8.793 31.66 2.646 8.79-10.585-21.17-30.8176z"/><path d="m2542.99 89.1218v20.6582l9.65 38.33 7.93 3.073 14.08-17.671 14.09-13.402-5.04-10.33z"/><path d="m3037.37 89.1218v16.3052h-28.16l-14.93-10.5857 13.14-5.7195z"/><path d="m2994.28 156.39-7.94 22.964h34.31v-16.732z"/><path d="m2976.69 94.8413-41.39-5.7195v20.6582l-26.37-20.6582-9.64 20.6582 17.58 23.988 29.87 14.342 23.72-23.305 15.88-10.586z"/><path d="m2323.07 243.549 14.08 22.451-42.67 37.39-21.16 40.464-12.72 48.829 14.93 30.817 23.39 10.5-11.01 9.732-31.66-5.293-28.59-25.61 10.07-14.085v-16.134l4.44-47.549-4.44-17.585 17.58-9.732 4.44-19.293s33.45-17.073 34.13-17.073 14.94-17.073 14.94-17.073z"/><path d="m2237.73 475.829-20.23-3.5v12.293l4.35 9.732h15.88z"/><path d="m2391.68 335.915 7.94 15.024h-14.93l-6.23-7.512z"/><path d="m2744.4 220.671-15.79 5.292v12.293h15.79z"/><path d="m3507.09 317.988 8.53-7.085 14.6 3.585 5.29-34.659-21.68-20.487 5.89-11.183 8.53 13.487 11.7 2.903 2.39-12.293 13.99-.597 8.54 9.987 32.85-8.536-17.07-28.768-12.88-7.598 15.27-17.073-11.86-20.403-26.97-4.097-14.59 11.695 15.19 20.573h-13.48l-15.79-23.475-66.91-8.537-54.53-8.537-55.3 12.378 6.48 14.086 19.29 15.28-4.61 13.317-12.97-8.536-14.76-5.122-11.01-11.951-6.06 15.451-44.38 10.158 1.79 14.683-14.08-9.39-17.58 4.098-8.53-23.391-25.52-11.609-35.76 17.073-22.27 6.402-1.79-8.536-11.1-5.976-7.59 7.085-19.97-11.78 1.79-12.293-30.47 3.5-4.69 25.61-4.1-19.976-14.68 5.891.6-11.781-50.44 3.5 14.6 12.378-12.29 9.988 12.29 3.5 9.98 17.073-12.88 1.195.59 15.793-22.87-9.39-10.58 4.695 1.79 7.085-17.58-.597-10.58-8.537 8.53 38.159-29.27-15.281-24.06-12.976 14.08-2.987-8.54-12.891-8.53 1.793-.51-12.378-31.67-13.488-24.06 2.988-8.54 5.293 11.1 18.183-29.87 8.536-21.17-1.195.6-14.683-46.51 9.647-17.07 7.085-17.58-7.683v18.268l-19.97 30.561-2.3-19.975 14.59-48.061 5.29-35.854-35.16-24.585-17.58-7.683-19.97 9.39-7 16.476-6.48-25.61-24.58 7.683 3.5-18.183-19.37-4.695-8.54 28.683 21.08 25.609-25.6 2.903 15.62 18.78-15.62-8.536-13.14 12.89-7.09-5.293-23.46 5.891 10.58 5.292-30.47 21.683-12.37 24.073 1.19 17.073 19.37 9.391-8.53 5.89-46.6 15.963 14.17 28.171 22.87 12.293 9.47 5.549 4.61 2.731 8.54 20.488-9.99 9.988-4.69-29.878h-19.89l-28.76-15.878-7.76 9.988 5.2 11.097-15.78-5.207 9.38 18.695 23.47 7.085-35.24-4.097-12.89-40.464-7.6-.597 8.54 23.475-9.39 8.537 5.89 16.39 15.79 12.378 7.08 31.073 7.6 7 17.06-8.536 24.58 14.085-1.02 10.756-9.39-5.89-12.46-11.183-14.08 11.781 9.39 23.475-6.49 21.683-7.59 9.988-11.18-4.098 8.53-47.548-16.47-16.561-15.28-42.683-11.09-9.391-4.7-36.365-32.85-2.391 1.19 36.452-8.53 18.183 19.29 36.878 9.38 1.792 15.28 12.891-1.79 17.67-30.64-19.549-33.2-12.207-20.48.598-2.3 8.536 8.53 15.281-9.13 9.732-7.68-10.586-31.66 11.183-4.7 8.537-12.29.597-1.19-13.488-40.45 28.683-5.89 5.293-1.71 15.878-14.68 1.707-9.98-13.658 11.69-9.39-12.63-13.915-19.88-1.707 6.99 33.463 8.54 2.305 1.19 20.573-19.97-6.488-21.67 22.281 11.69 15.28-7.6 8.537-29.35-14.085-4.1 11.182 18.77 8.537-7.59 8.537-20.57-9.988-11.09-21.683 1.7-16.476-28.67-18.183 4.69-2.305 30.47 13.488 24.66 7.598 23.98-11.098 2.99-18.78-58.12-39.183-23.29 3.5-20.32-7.598-7.42-2.39-14.25 14.939-.77-1.707-3.16 10.67 18.01 23.988-5.46 12.208 13.05 28.256v15.024l10.33 33.378 7.68 10.244-25 42.683 12.88 11.183-14.42 11.78 4.61 27.659 5.38 28.512-11.18 10.585-9.31 21-22.27 10.757 5.97 17.073-4.95 8.024 1.03 6.232 11.43 2.134 13.32-4.183 23.04 5.463h29.78l1.97-7.853 12.11-1.793 2.56-4.439h17.07l1.88 10.073 5.8 5.891 6.4-1.537 10.24 17.073 16.13-4.097 5.04 5.719 25 5.549 2.91 6.488-4.87 2.902 2.9 12.976-.94 6.402-9.64 2.903-2.47 8.536 4.86-1.536-3.5 9.39-7 18.183-7.59-.512.51 5.804 13.48 7.683 23.47 17.074 18.18 14.085-2.05 10.585 19.63 3.756 7.08 5.976 15.88-2.049 6.31-4.951 16.13 4.951-5.2-9.475 3.15-3.5 12.55 9.048 12.46-9.219-17.92-27.403-12.89-8.536 5.89-20.573 11.18-3.5 8.11-6.744-11.1-8.537-22.36-21.085-1.19-25.61 5.97-8.537 14.51 11.183v-13.402l18.35-18.781h15.79l28.76 13.488 28.24-5.89 20.23 5.89 23.21-2.39v-11.098l-13.57-11.182 4.53-18.183h9.04l-13.57-11.696 13.57-4.097 54.11-20.829 13.65-11.098 21.68 2.903 3.5 15.878 41.05 8.536 21.59-16.219 52.14 58.731 17.58 1.11 18.18-6.402 19.97 18.183 12.29 4.097 12.37-1.195 6.06 9.22 3.33-3.33 2.22 3.159 8.53-7.854 16.65-20.573 24.06-5.89 26.29 14.597 31.74-3.414-9.98-24.671 9.98-14.085 38.66 6.487 15.88 19.378 35.16-4.695 31.66 13.488 45.4-6.829 18.18-16.39 26.2 6.658v-1.963l14.59 1.195 9.39-11.183-2.31-18.781 2.91-13.487v-12.122l-9.99-2.561 2.99-9.903 21.08-8.536h20.56l21.08 7.085 20.57 29.366 17.07 25.183 16.38 3.5 26.37 10.585 5.98 19.976 15.79 2.902 5.89-12.378 15.19-7.597 8.53 13.317-2.3 10.927 2.3 40.89-16.13-2.39-7.25 7.085 7.25 31.073-5.21 8.537 5.21 3.329 2.65-3.244 5.29-12.89 8.53.597 4.1 8.537 12.97-2.902 19.88-39.866 12.38-44.647 5.29-32.866-10.58-34.146-4.1-30.476-4.69-9.987-4.7-17.586-32.26-15.28-5.12 12.634-8.53-4.695-8.53 3.5-7.09-18.183-18.77-.598 20.65-56.853 8.53-36.964 7-18.183 45.15-14.085 17.66-.598 2.31-14.683s27.56 4.098 29.35 4.696c1.8.597-2.98 9.39-2.98 9.39l3.33 5.293 33.02-18.183-5.2-7-9.39-1.196 3.5-33.463-1.54-20.146 15.88-9.903 17.58-5.89 2.9 21.085 15.87 7.683 10.5-34.146-11.1-22.878 21.08-4.098 7.68 49.854-12.97 12.293-1.11 48.744-2.39 21.085-11.69 10.073 4.1 16.476-1.2 29.878 42.67 74.524 15.79 28.683 13.49-12.292-4.1-31.074 11.18-8.536-7.08-22.878 11.77-12.891-13.48-41.658 13.48-1.195-9.98-14.086h-8.54l.6-21.085-10.58-3.585-2.31 8.536-8.53-9.39.6-32.183-7.6-20.573 19.37-15.878 8.54 14.085 8.53-23.39 14.68-3.585 18.52 13.573v-11.098l5.29-38.158 26.12-41.488h18.17v-14.854l-59.73-42.683zm-1418.03 364.256-18.77-18.78 8.53-19.293 23.47 25.61zm39.86-18.78-17.58-19.293 5.29-16.476 7 4.695 7.08 13.232 5.29 14.342zm39.85 56.768-19.88-15.366 7-9.732 17.06 14.086zm753.05 34.744v17.073l-26.97 7.256v-7.256l15.28-6.829 8.53-23.134 11.1-21.598-11.1-30.049h17.07l7 43.878z"/><path d="m3779.24 2008.66-7.59 2.9 3.75 25.87 3.84 25.18-3.84 31.67-14.34 3.5v9.99l12.29 12.97-12.29 21.09 5.3 9.99 33.96-38.76 12.38-8.19 13.48-24.68-5.89-5.29-10.58 8.88-11.09-9.99-1.2-22.88-10.58 2.91 6.74-22.88z"/><path d="m3737 2125.95 16.47 21.77-4.09 13.49-22.96 20.49v11.78l-22.28 4.69-16.98 26.38-23.47 20.49-15.19-7.6-14.08-5.89 18.18-29.88 31.06-18.78 28.17-20.49z"/><path d="m3640.22 2239.83 10.59 11.1-16.39 6.48z"/><path d="m3416.2 2094.28c7.17 4.66 14.04 9.76 20.57 15.28l21.68-7.6-5.89 23.65-15.19 17.67-15.28 8.54-5.89-11.78z"/><path d="m3472.53 1647.56h-8.54l-8.53 35.17-6.23 42.09-11.95 11.27-17.07-11.27-32.26-20.06-4.09-12.98 17.07-28.43-27.91-3.5-23.13-8.53v11.09l-20.57 2.39-19.96 21.09v14.68l-13.49-4.09-15.79-11.7-25.6 17.07-14 17.08-4.18 13.14-10.66-13.14-9.82 13.14v11.19l-11.61 17.24-71.6 18.78-19.37 11.44-8.53 37.82 4.69 18.78-4.69 5.89 4.09 34.14 5.89 45.25s-15.79 25.61-14.08 26.38c3.8 4.55 7.14 9.47 9.99 14.68l22.27 5.8 31.06-16.39h31.75l14.68-13.48 15.7-1.2 5.46-8.54h20.49l18.77-7 35.76 3.5 19.97 8.54 12.63 41.66 30.72-31.67-16.38 36.96 19.62-5.29-6.14 16.39 12.29-2.9v28.76l5.29 14.69 31.66 20.49 17.07-13.49 10.5 19.38 28.76-19.38 17.58.6 8.53-12.3 8.54-29.36 43.43-59.76 24.07-64.54-8.53-48.65-40.46-71.03-21.67-19.38-8.54-51.22-12.88-3.58z"/><path d="m3321.22 1647.9v9.39l11.09 2.9 6.83-8.79z"/><path d="m3343.49 2004.56 16.47-5.29 5.21 9.39h-17.58z"/><path d="m3289.56 1618.54-2.99-6.49-21.34 3.58-9.64 5.81 11.35 5.63.94-.85z"/><path d="m3541.14 1574.57v8.8l20.48 6.57h17.07l12.29-15.37v-14.08h-8.19l-8.79 19.03h-15.28z"/><path d="m3571.01 1541.11v6.74l17.07 6.32 9.9 17.42h3.58l-10.58-21.69z"/><path d="m3547.03 1621.44-21.16-26.38 9.38-1.11-1.19-10.58-23.98-8.8 2.9-10.58-57.78-22.37-2.13 83.32 1.88 1.54 22.87 3.84 4.69-22.37 15.19-2.9 17.07 9.99 15.19 21.68 36.44 7.08v-8.87z"/><path d="m2936.5 1447.81-26.37-6.41v8.54l13.14 15.28 24.33 23.99s22.95 40.55 23.47 42.68c.51 2.13 9.38 15.88 9.38 15.88l38.15 36.36h15.87l5.81-32.26-15.79-10.59-4.1-14.08-12.37-4.7 4.69-9.39-7-7-19.97-14.09-25.6-22.87z"/><path d="m3043.86 1583.37-15.87 12.29 35.75 12.29 40.46 5.89 24.66 3.5h22.27l12.89 7.09 22.87-2.99s-1.11 9.99 0 9.99 24.66 9.39 24.66 9.39v-12.89l-19.97-4.1 4.1-5.29 15.87 2.39 25.18-2.39v-9.39l-14 5.89-15.27-2.99-21.17 2.99-24.06-2.99h-17.75l-12.29-4.1-19.2-11.61-21.08-8.54-2.31 9.4-21.5-1.8z"/><path d="m3033.87 1530.52-5.88 7.69 16.98 13.49 4.1-7.09z"/><path d="m3054.96 1544.01v7.68h9.98l3.16-7.68z"/><path d="m3265.24 1493.56-16.13 6.49-34.65-3.25-13.49 9.65-5.29 19.98-8.79 29.36 8.79 3.5v22.28l12.97 1.8 2.31-35.52 4.1 3.84 7.08 23.99 21.68-11.69-22.28-25.53 24.58-12.03-1.71-8.8-29.35 12.89-11.1-14.68 8.79-9.39h18.69l18.78 5.89 15.02-12.29z"/><path d="m3305.35 1482.46c-4.51 2.15-8.83 4.7-12.89 7.6v22.28l12.89 13.49v-7l-6.4-12.38h11.09v-12.55h-8.53z"/><path d="m3295.96 1547.85 2.98 12.64 18.78-6.32 16.98 6.32-5.89-12.64-13.48-3.84z"/><path d="m3247.31 1626.48-6.4 14.34 15.79-3.5 10.24-10.25-11.35-5.63z"/><path d="m3414.5 1525.83-23.47 26.46-14.68-8.28-3.5-21.08-21.17-7.6-19.37 7.6 2.39 6.74 14.08 11.44 17.58-2.9 1.79 5.8-20.56 3.84 9.39 16.14 12.28-9.82 44.04 22.71 13.48 21.68-11.77 16.48 22.36-2.99 15.7 12.89 2.13-83.32z"/><path d="m3179.3 1482.46-7.09-11.78 5.38-9.98-21.17-2.91-14.08 37.56-47.53 8.54-9.56-14.17-6.83-1.71s-13.48 18.19-9.64 17.67c3.84-.51 21.33 45.16 21.33 45.16l44.64 3.5 5.8 9.39 15.28-9.39 6.4-22.28 13.57-28.17 16.38-2.39-15.27-13.49z"/><path d="m3226.06 1299.44-23.3-27.57-7.08 11.09-3.5 31.67 11.78 15.88 9.9 8.2 18.17 4.09 15.28 13.49 10.58 9.99h-7.68l-9.3 17.59-4.18-16.99-11.69-3.5v16.39l8.79-4.1-4.7 15.79 11.78 7.09 8.71-14.68 2.98 7.59 8.19-3.5-6.4-14.08 10.84.6 5.55-2.31-5.55-20.57-19.63-2.9-4.69-13.49-12.37-6.49h-11.7l-2.98-14.6z"/><path d="m3265.23 1388.56-15.02 21.68-5.29-5.2-18.86 11.44v11.43h5.38l5.29-9.98h14.08l1.2 15.79 13.22 7.68 5.55-10.58v-11.1l12.29 3.5-5.29-24.67z"/><path d="m3192.18 1366.88 3.5 12.29-25.17 25.87-5.29-3.5z"/><path d="m3199.78 1339.3 11.18 20.49 8.19-6.4-4.69-10.59z"/><path d="m3206.86 1188.55-8.79-6.23-11.18 17.92v16.99l7.09 8.28 2.9 8.2h4.09l-4.09-10.59 7.08-8.79z"/><path d="m2726.3 1391.46-4.09 26.47 7 23.47 17.58-10.58c-.56-4.77-.56-9.58 0-14.34-3.31-7.39-7.43-14.37-12.29-20.83z"/><path d="m3412.11 863.902-54.54-23.731v8.792l5.21 14.939v15.879h-8.71v18.439l7 18.439 12.29-8.793-10.58-14.085 10.58-1.708 19.37 10.5 4.44-24.158h14.94z"/><path d="m3373.36 916.659-10.58 10.585v16.732l5.29 24.67-5.29 21.939h-19.29l-6.57 22.025-11.95 4.44-21.08 5.21-19.37 19.29v9.73l-10.5 12.38 15.79 34.32 10.58-8.8v-30.81l-9.73-9.74 9.73-7.08 28.08-8.71 8.45 13.15 5.63 9.73 11.52-17.59v-10.58l13.15 5.29 6.14-6.14 9.64-12.38 4.44 15.88 9.73-16.74-7.08-10.58-7.09-26.38 10.59-8.793-4.36-30.817z"/><path d="m3323.27 1041.55-22.87 8.02 11.43 18.44 11.44-13.23h7.93z"/><path d="m2783.74 1151.33h-13.57l-6.74-4.01-21.85-13.06-21.51-5.98h-10.92l-2.64 19.04 37.63 17.67 32.86 8.88 22.95 2.64v-19.29h-5.2z"/><path d="m2679.88 1069.98-15.11-16.65-18.77-7.85-9.39-18.27h-12.54v4.69l-15.62 7.6-1.54.51-1.19 7.17 18.35 12.3-6.75 9.13 2.56 17.59 8.88 6.23 12.12 3.07 18.17-8.79 22.96 5.03 1.54 5.13 6.31-4.96z"/><path d="m2863.11 1236.52-5.21-24.5-4.69 4.53-1.02 5.89-8.88-10.42 12.46-16.64-26.11-3.76-7.26-9.82-13.82-4.26-3.93 7.51 10.41 5.04-6.48 10.41 14.76 37.65 1.11.25 13.48-11.18 10.59-1.71 6.48 18.78 6.06 7 2.73-15.62z"/><path d="m2950.75 1339.3-10.92-14 2.05-18.69-15.62-22.54 6.48-14.85 19.63-14.43 13.57-16.13-25.09-7.34 4.7-6.75-7.86-12.55-12.46-4.01-6.31-7 10.5-26.03-12.04-23.65-11.09 3.67 2.22 2.22-16.73 10.41-13.31 30.39v14h-9.39v16.74l-5.29 6.91-2.73 15.62 5.63 6.49 12.29 9.39-5.29 4.1 5.29 7 5.89-6.4 8.19 22.87-5.21 18.19 5.21 2.9 25.86-12.89v-8.79l14.08 27.57 9.3 24.59 4.78 21.17-3.58 15.79v7.25l10.92-23.64-1.54-11.7z"/><path d="m2819.75 1152.35-9.64 8.71 2.39 9.73 34.39-.51-3.07-13.06.43-.34-5.72-4.53z"/><path d="m3040.28 1377.55-5.98-10.67 17.24-14.68-5.29-16.99-11.95-6.23v10.32l-15.7-8.28h-20.05l-8.62 12.72 3.07 19.38 9.73 11.95 5.89 8.2h9.47l4.69-5.72z"/><path d="m3061.44 1312.33-27.57-21.68-2.39-7.09-9.38-7 1.79-17.67 7-14 12.88-4.52-14.67-6.66v-10.76l-20.4-6.4-23.98 8.02-8.11 2.48 8.11 12.63 5.2 8.8h16.73l5.72 9.3-10.41 8.54 5.2 10.41 13.57 6.83 11.95 16.14 18.86 11.01-3.16 10.92-2.9 13.15.77.43 5.29 16.99-17.24 14.68 5.98 10.67h-17.5l-4.69 5.72h.51l5.89 1.19-4.1 21.09 7.6-1.71 15.27-21.17 7.6-.51 19.97-16.48v-19.37z"/><path d="m3226.23 1002.02-5.88 4.1 9.98 15.2-3.58 10.58 7.08 13.49 15.28-12.29 15.19-9.39-11.69-30.564-11.7-16.902-23.38 13.061z"/><path d="m3223.76 916.659 3.07 10.329-18.78-5.805-17.75 26.634v8.878l10.67 3.073v26.378l5.89 7.598 9.39-6.402 1.28 1.963 23.38-13.061v-.085l-5.29-5.891-11.18-5.805-1.19-10.585 19.97-20.573-4.1-17.585 9.05-10.842-10.33-6.658z"/><path d="m3241 862.366 7.17-7.085 16.12 2.39-2.3-40.805 2.3-11.012-8.19-13.317-15.1 7.597-5.98 12.378-15.79-2.988-5.97-19.89-26.37-10.585-16.39-3.5-16.98-25.183-20.57-29.366-21.07-7.085h-20.57l-21.08 8.195-2.99 10.073 9.99 2.476v12.122l-2.9 13.487 2.3 18.781-9.39 11.183-14.59-1.195-4.18 38.756h9.38 14.68l7.68-7.683 14.09 13.829 4.09 10.842-15.27 2.304-11.7 9.988-5.88 10.586-12.89 4.097-9.39 9.988-15.27-2.988-11.18 4.098v10.585l9.98 4.781-12.89 21.597-45.14 14.683-11.78 8.281h-17.58l-25.86-11.781-18.69-2.902-22.27 2.902h-19.97l-15.28-22.878-23.98-12.293h-22.27l-12.97-7.683 2.98-9.731-2.98-12.549-9.9-13.403-14.94-2.39-6.82 2.39-15.2-21.17-8.79 8.878-8.27 12.292 4.09 11.098-8.19 8.793-20.23-3.5-5.54 24.585 5.54 4.781-9.64 3.414-16.47 2.988v7.854l6.49.939 6.48 22.28-4.69 10.329-12.97-5.036-29.87-.598-33.46-2.902v8.536h-24.06l-4.53 9.561v10.5l7.86 5.378 4.18-6.914 6.57 6.914-5.55 5.122-16.64-4.012-8.36 8.451 3.67 6.061-19.89 10.842 7.85 14.943-2.56 15.62 12.46 3.41 12.55-4.18 7.85-14.85 8.62 3.5v21.25h9.98l12.12-13.83 16.22-3.16v6.58h12.54l9.39 18.27 18.77 7.85 15.11 16.65 9.98 21.93-6.31 4.96 6.83 22.19 19.28 5.81-.51 3.41h10.92l21.51 5.98 21.85 13.06 6.74 4.01h13.57l11.01 5.89h5.2v-2.13l8.62-.52 1.54 6.49 9.64-8.71h18.78l5.72 4.53 29.44-19.55 19.12-2.56 5.8 12.55 7.68 7.68 11.09-3.67 12.04 23.65-10.5 26.03 6.31 7 12.46 4.01 7.86 12.55-4.7 6.75 25.09 7.34-2.73 3.16 7.94 1.53v-14.59l13.57-4.19 23.98-8.02 20.4 6.4v10.76l14.67 6.66 12.38-4.36 10.5 3.59 4.18 13.49 6.99-.6v-12.29l29.87-10.59 35.85-14.68 15.79-19.64 14.67-29.02 12.89-24.07 6.49-25.27-16.47-8.2 12.37-11.1-13.48-10.58 8.79-5.89-22.88-31.07-14.67-6.49 2.9-18.19 14.08-14.08 14.08-2.9.6-11.101h-17.58l-7.09-5.292-7.59 5.292-5.29 9.301h-7l-2.99-12.288-6.4.597-10.58-9.39 1.19-12.293 12.29 1.11 2.99-15.195 8.79-1.793 7.6-16.988 14.08 3.5-6.49 15.878 4.7 8.793-5.3 7 4.19 3.5 8.19-7.598 2.9-5.89 19.37-9.305 1.62.427v-8.878l17.76-26.634 18.77 5.805-3.07-10.329 14.08-18.439 5.12 3.329 5.21-8.11z"/><path d="m3008.02 800.732-46.34 6.488-31.66-13.488-35.16 4.695-15.88-19.378-38.66-6.488-9.98 14.171 9.98 24.585-31.74 3.415-26.29-14.598-24.07 5.89-16.64 20.574-8.1 7.853 12.97 18.012 6.82-2.39 14.94 2.39 9.9 13.403 2.99 12.549-2.99 9.731 12.97 7.683h22.27l23.99 12.293 15.27 22.878h19.97l22.28-2.902 18.68 2.902 25.86 11.781h17.58l11.78-8.281 45.15-14.683 12.88-21.597-9.98-4.781v-10.585l11.18-4.098 15.27 2.988 9.39-9.988 12.89-4.097 5.89-10.586 11.69-9.988 15.27-2.304-4.09-10.842-14.08-13.829-7.68 7.683h-14.68-9.39l3.92-36.793-26.19-6.658z"/><path d="m3142.34 1495.35 14.08-37.56 21.17 2.82 4.61-8.71 13.48-6.4-31.66-22.28-32.17 32.78-24.15 21.77-9.9 15.28-12.55-3.07 9.56 14.17z"/><path d="m2967.57 1435.51 4.69 22.88 11.69 17.59 31.75 19.37 2.9-6.48-11.18-16.39-1.11-23.48-14.68-15.79-.34-.17-27.05-1.88z"/><path d="m3013.9 1307.04-3.67-16.22-11.69-10.16-3.41 7.6-9.39-2.65-17.24 5.21v-21.6h-6.23l-9.47-14.94-.43.51-19.63 14.43-6.48 14.85 15.62 22.54-2.05 18.69 10.92 14 2.14 15.88 1.53 11.7-10.92 23.64v19.72l3.58-1.7 17.16 22.62 27.05 1.88-16.05-8.71-7.68-7 2.99-2.9-4.18-9.99-8.19-9.39-5.29-4.1 4.09-17.07 4.18-17.59.52-12.29h9.98v10.59l20.57 7.59.77.94-3.08-19.38 8.62-12.72h20.06l3.41 1.8 3.42-16.39z"/><path d="m3051.54 1310.71-18.86-11.01-11.95-16.14-13.57-6.83-5.2-10.41 10.41-8.54-5.72-9.3h-16.73l-5.2-8.8-8.11-12.63-5.46 1.71v14.59l-7.94-1.53-10.41 12.46 9.47 14.94h6.23v21.6l17.24-5.21 9.39 2.65 3.41-7.6 11.69 10.16 3.67 16.22 11.52 9.39-3.41 16.39 12.29 6.48v-10.32l11.18 5.8 2.9-13.15z"/><path d="m3082.52 1257.78h-18.77l-8.79 8.2 5.29 14.68h10.58l7.59-5.29 4.1-11.78z"/><path d="m2140.1 1071.17 5.8 8.28 15.28-4.1 6.48-9.47h-13.82z"/><path d="m2189.34 1049.49 60.51-7h27.65l2.64-3.84-6.83-9.82-4.18-21 4.18-6.15-10.92-3.241-1.02-11.354-10.5-8.878-19.63-3.756-1.45 7.598-24.66 3.5-30.47-7.598-15.79-6.487-28.76 5.292-11.18 9.988-15.79-1.793-5.88 4.098 1.79 5.293-22.87 3.5-9.39 5.888 1.71 7.6 5.88 1.79.6 10.59-5.89 2.9 21.68 23.48 22.27 5.29 8.28-8.2 21.68 11.7 15.87-4.7 9.39-7.59 15.79-.6-2.31 12.21 7.6 2.98z"/><path d="m2294.73 1014.83 5.21-7-13.06-9.391-11.6-17.415-1.45 1.196-15.88 1.963 3.42 2.902 1.02 11.354 10.92 3.241-3.07 4.53 5.72-1.45 3.16 3.07 4.09-3.16z"/><path d="m2331.26 987.341-12.03-18.353-12.46 9.219-12.54-9.049-3.16 3.501 5.2 9.56-16.13-5.036-4.86 3.841 11.61 17.415 13.05 9.391-5.2 7-11.52-10.16-4.1 3.16 9.3 9.39 12.04-.51 13.05-11.95 6.83 10.07v7.08l4.86 1.88 3.16-25.351 8.79-6.402z"/><path d="m2187.21 1102.41-3.08-6.82-10.49 1.62-1.28 6.23-10.58 15.88 14.16 32.01 2.05-7.85 3.5-35.35z"/><path d="m2178.42 1074.76-4.78 22.45 10.5-1.62.93 2.04 6.83-15.62z"/><path d="m2201.88 1143.65h7.77l7.85-12.04-14.08-12.55 22.96-9.9-7.86-16.73-22.44 15.7-9.9-4.69-4.69 4.69-3.5 35.35.17-.69v5.89l13.74 2.65z"/><path d="m2242.51 1059.48v-6.75l12.54-5.55v-4.69h-5.2l-60.51 7v11.69l-7.6-2.98-.59 3.67-2.73 12.89 13.48 7.25-6.83 15.62 2.14 4.78-1.03 1.03 9.9 4.69 22.45-15.7.68 1.53 23.3-17.5z"/><path d="m2289.02 1151.33h25l4.69-14 12.38 2.13 1.96-5.46h.68l-8.7-11.78v-11.53l-15.19-11.95-15.11-11.52.52-10.76 4.69-5.29 3.16-9.99-13.57-5.2-11.95-13.66-.09.17h-22.44v4.69l-12.55 5.55v6.75 16.98l-23.29 17.5 6.65 14.17h8.88z"/><path d="m2334.33 1153.55-.17-.26-5.2-7.59 2.13-6.24-12.37-2.13-4.61 13.74 12.71 6.15z"/><path d="m2374.1 1195.29-.59-6.74-7.09-3.5-.51 16.22 9.65 4.52z"/><path d="m2380.5 1211.68-4.09.34-.86-6.23-9.64-4.52-.09 1.96-11.09-24.67-20.4-25.01-7.51 3.67-12.71-6.15-.09.26h-25l-54.28-43.2h-8.88l.52 1.03-22.96 9.9 14.08 12.55-7.85 12.04h-7.77l-9.98 7.68-13.74-2.65v14.09l24.07 32.52 8.79 17.84 10.58 2.39 8.19 21.69 2.39 12.89 21.68 21.17 14.67 22.88 7.17 16.39 9.65-4.02v-12.54l34.47 9.13 1.8 12.8 21.67-28.17 77.07-21.42v-37.05l.25-.51h-40.11z"/><path d="m2429.23 1181.8-21.76 27.83-26.97 2.05v17.08h40.11l14.34-30.74z"/><path d="m2343.29 1287.74-21.67 28.17-1.8-12.8-34.47-9.13v12.54l-9.65 4.02 3.33 7.68 10.58 36.96 18.18-3.58 7.09-7.6 12.28 4.7 13.49-9.4 22.27-10.58 29.96-8.2v-11.18l8.36-2.73-16.73-30.39z"/><path d="m2460.3 1216.72-19.97-3.59-5.38-15.11-14.59 31.25v37.05l-35.84 9.9 16.72 30.39 16.81-5.46 8.79-2.31 3.5-7.68 9.39-2.31 4.69-10.58 10.59-.6v-15.79l7-7.09 13.48-21.68z"/><path d="m2512.36 1176.51-9.39-19.29-13.57-5.89-9.39-14 9.39-13.92-2.05-11.09h-11.86l-9.05-39.61 6.83-6.83-3.16-21.09-49.75-24.16-32.43 15.37 1.36 5.55-29.27 5.63-35.76-15.28.94-8.11-4.86-1.88v-7.08l-6.83-10.07-13.06 11.95-12.03.51-12.46-12.46-5.72 1.45-1.11 1.62 4.19 21 6.82 9.82-2.56 3.67 11.95 13.66 13.57 5.2-3.16 9.99-4.69 5.29-.51 10.76 15.1 11.52 15.19 11.96v11.52l8.71 11.78 18 .6 17.67 25.18 43.35 22.02 19.38-10.84 11.69 17.59 49.32 9.39 1.46-.17v-12.72z"/><path d="m2507.66 1047.18 4.69-13.14 17.76-4.19v-9.22l-50.61-24.24-8.36-19.805-41.14-23.561-16.64 11.525v12.036h-17.33l-20.48-14.597-13.05 7.171 3.32 9.39.6 15.195 14.68 14.086 6.83 28.17 32.43-15.37 49.75 24.16 1.96 13.49 17.33 4.7z"/><path d="m2546.83 1012.87-7.85-14.943 19.88-10.842-3.67-6.061 8.37-8.451 16.64 4.012 5.55-5.122-6.57-6.914-4.19 6.914-7.85-5.378v-13.061l-18.26 19.549-25.52-1.11-2.64-9.987-11.52-2.647v-12.634l-9.31-10.5h-37.63l-20.23-12.293-4.01 7.598-17.07-4.098v-14.426l-30.21 6.146 9.73 57.963h12.89v-12.036l16.64-11.525 41.13 23.561 8.37 19.805 50.6 24.24v7.09l13.57 4.18z"/><path d="m2542.65 1121.88 28.17-13.75 5.71-28.68 12.04-4.69 2.64-29.97 17.24-5.29 15.62-7.6v-11.27l-16.22 3.16-12.11 13.83h-9.99v-21.25l-8.62-3.5-7.85 14.85-12.55 4.18-12.46-3.41-.59 3.41-13.57-4.18v2.13l-17.75 4.19-4.7 13.14-18.26 15.8-17.32-4.7 1.19 7.6-6.83 6.83 9.05 39.61h11.86l2.05 11.09-9.39 13.92h62.64z"/><path d="m2605.72 1205.79-5.12-14.68-18.26-17.24 11.43-16.65 17.24 2.56 20.91-36.37 2.56-15.28 11.52-11.26-17.24-4.44-8.87-6.24-2.56-17.58 6.74-9.13-18.35-12.3 1.19-7.17-15.7 4.78-2.65 29.97-12.03 4.69-5.72 28.68-28.16 13.75v15.45h-62.64l9.39 14 13.57 5.89 9.39 19.29-17.76 8.54v12.72l37.21-2.48h18.78l13.48 17.84 10.5 3.42 7.17-6.66z"/><path d="m2709.24 826.597-12.29-4.097-19.97-18.183-18.18 6.402-17.58-1.109-51.46-58.391-21.16 15.878-41.05-8.536-3.93-15.878-21.68-2.903-13.65 11.098-54.11 21.171-13.57 4.097 13.57 11.695h-9.04l-4.53 18.183 13.57 11.183v10.842l-23.21 2.39-20.22-5.89-28.25 5.89-28.76-13.232h-15.96l-18.18 18.781v13.488l-14.51-11.183-5.97 8.536 1.19 25.61 22.36 21.085 11.1 8.537 15.36-12.634h23.98s5.89 24.073 7.08 25.609c1.2 1.537-23.47 2.988-23.47 2.988l-7.59 12.891 9.9 14.682 18.18 8.537 5.46 15.281 13.06-7.257 20.39 14.683h4.52l-9.72-57.963 30.21-6.146v-6.147l20.56-10.5 5.89 17.586-5.37 9.987 20.22 12.293h37.64l9.38 10.5v12.634l11.44 2.561 2.65 10.073 25.6 1.11 18.26-19.549v2.561l4.52-9.561h24.07v-8.536l33.45 2.902 29.87.598 12.98 5.036 4.69-10.329-6.49-22.28-6.48-.939v-7.854l16.47-2.988 9.56-3.415-5.47-4.78 5.47-24.585 20.31 3.5 8.53-8.537-4.09-11.098 8.53-12.292 5.46-5.549-6.06-9.219zm-113.76 66.842v14.683l-9.99-5.293v-13.488l9.99-10.585 9.98 3.585z"/><path d="m2070.54 979.146-6.48 13.915 2.73 5.378 14.08-8.793 11.69-1.109 1.2-4.695-8.79-5.891-1.97-5.378-13.74 5.976z"/><path d="m1565.67 570.841-11.7-14.682-9.98 7.341s-11.78 13.146-9.99 13.744c1.8.597 22.88 0 22.88 0l-2.39 8.537h-18.69l2.3 8.536h11.61l6.57 8.537-9.99 2.902 3.42 8.537h15.96l17.58 7.085 42.67-18.78 9.38-13.488-4.09-20.573-14.34-12.378-24.66 9.987-17.58-1.792-.43 13.487-9.98 2.903z"/><path d="m1736.86 716.305h-17.07l-3.5 13.488-4.09 7v7.085l-5.55 5.89 1.71 7.854 8.53-9.817-3.5 11.951-.85 11.781h5.54l3.5-13.83v11.183l-3.75 11.439h6.14l11.44-3.5c-1.36 2.733-2.44 5.592-3.24 8.537l2.04 5.293h6.49l-2.39 14.341-14.76-2.561-1.37 10.841 5.63 1.452-.59 7.085-11.44 5.293 2.05 6.146 8.53-1.451 5.89 3.158 5.8 1.537 9.14-6.488-6.15 10.586h-13.23l-5.29 4.695-12.88 12.89 5.54 2.646 11.18-6.488 7 2.049 7.08-8.536h11.1c.85 0 26.45-1.537 26.45-1.537l11.1-9.732-10.07-2.987 11.43-13.488-2.9-9.988h-15.27l1.62-5.549-3.07-4.951-7.26-14.256-3.84-2.049-7.59-14.341-9.14-9.22h-11.09l9.64-3.756-1.19-4.098 9.73-17.926-9.39-2.305-12.37 2.305.59-6.488 8.54-5.207z"/><path d="m1690.86 786.134 4.1 4.695 3.58-4.695 6.66 6.488 6.74-4.012-2.65-13.659-7.76-1.28-1.96-.427-8.71 8.11z"/><path d="m1698.54 786.134-3.58 4.695-4.1-4.695v-4.781l8.71-8.109-9.9-1.793-7.08 8.451 5.03 3.244-5.03 2.988h-15.79v6.402l4.69 2.988-4.69 4.61 9.04 4.695-9.04 9.39h11.43l-11.43 4.183-6.74 1.451 4.69 9.988 8.79 3.756 12.03-6.402 15.19-4.098 3.59-1.195 2.05-11.439-1.11-12.89-.94-4.439.85-.512z"/><path d="m1694.7 1028.83-2.56-2.39 3.16-9.22-4.78-9.39 6.4-1.62 6.74-28.344-27.56-3.244.68 2.134.6 19.378-10.58 21.686 5.89 8.19-.6 18.78h19.46l-1.37-7.17z"/><path d="m1779.28 967.28-18.61-4.524-5.8-5.975-69.3-7-14.08 9.39 4.61 15.451 27.56 3.244-6.74 28.344-6.4 1.62 4.78 9.39-3.16 9.22 2.56 2.39-4.52 8.79 1.36 7.17h6.32l11.78 14.09 21.08-10.5h20.56l14.6-6.49 7.76-21.68-4.26-10.59 18.77-22.278 15.87-7.086 1.11-9.219-14.16-3.757z"/><path d="m1872.64 960.366-8.79 8.195 4.44 16.39h4.35z"/><path d="m1846.95 928.183-3.84-16.988-9.3 5.122 2.22-8.622 8.61-9.305-1.53-5.805h8.96l4.18-21.426-18.01-4.866-19.54-7.683-10.24-7.342-7.85-11.695-4.78 2.817-7.34 14.683-8.53 2.39-6.32 7.854-10.07-.256-8.79-4.695 1.45 15.28-10.58.854-27.22-.341 32.51 25.865 12.63 19.635-8.53 33.122h-.17l5.8 5.975 18.6 4.525h11.7l14.16 3.756 1.2-10.671 7.08-8.281 12.89 2.391 12.29 5.89 15.36-11.354-11.18-17.329z"/><path d="m1866.15 773.5 9.99-8.537 2.39-37.304-27.57 22.365 5.55 26.122 14.34 3.415z"/><path d="m1845.33 814.049-1.54-11.269-26.28 7.939-6.15 22.281-.17.085 21.17 5.976 2.04-11.183h6.15l2.39-4.524-2.39-6.061z"/><path d="m1800.61 839.573 7.85 11.695 10.24 7.342 11.1 4.353 2.39-10.414v-12.549l.17-.939-21.17-5.976z"/><path d="m1829.8 862.963 8.45 3.33.85.256-7.17-12.976z"/><path d="m1906.18 865.354-7.68-13.147 31.83-12.207-8.53-27.829 1.79-19.037-18.18-5.89-26.97 1.792-7.68-9.731-14.33-3.415 4.69 21.683-17.07 5.207 1.54 11.269-4.78 3.244 2.39 6.061-2.39 4.524h-6.15l-2.22 12.122v12.549 1.024l7.17 12.976 17.07 4.609-4.01 20.574 4.01 2.305 7.6-2.049 12.88 3.841 23.98-4.524 9.48 2.732-1.71-5.293 9.22-13.488z"/><path d="m1888.26 691.89 7.25-5.805-5.12-15.28 8.02-13.147-8.7-6.743-1.45-36.878 12.8-3.842 6.4-38.841 8.36-8.281 8.28-16.732-2.22-7.939 8.02-14.426 6.49 1.878 3.16-12.208 16.04 3.586 10.58-20.83 14.68 13.403 26.29-8.281 2.3-20.231 12.12-5.464 12.2 8.707 5.47 13.147 14.25-14.939-18.86-6.061 16.04-7.939-33.2-17.586-52.14 18.183-44.04 39.269-40.45 87.414-26.97 31.073-36.35 22.366 6.48 66.244 20.49 9.988 33.45-26.976 3.41 8.878h9.05z"/><path d="m1991.43 534.561-4.18-14.768-13.14-6.147-11.52-10.158-7 13.744-16.04-3.586-3.16 12.208-6.49-1.878-8.02 14.426 2.22 7.94-8.28 16.731-8.36 8.281-6.4 38.841-12.8 3.842 1.45 36.878 8.7 6.744-8.02 13.146 5.12 15.28-7.25 5.805 2.13 15.708h-9.05l24.75 63.853 33.37-19.975.6-38.159 15.27-8.793 2.39-20.487-14.68-12.891-1.79-31.158 35.76-35.171 1.79-26.975 22.19-2.049-5.38-19.805z"/><path d="m2070.63 619.5-10.24-33.378v-15.024l-13.14-28.256 5.37-12.208-17.92-23.988 3.76-10.67-4.7-11.439-12.2-8.708-12.12 5.464-2.3 20.231-26.29 8.281-14.68-13.402-3.58 7.085 11.52 10.158 13.14 6.147 4.18 14.768 4.19 21.427 5.37 19.805 9.48-.854v14.085l-33.46 39.866 4.7 43.964 25.85 13.488 45.75-14.086 25-42.512z"/><path d="m2017.12 752.841-17.84-1.622-9.38 6.147v1.707l17.66 14.085.52 7.683h-1.71l12.97 13.317 22.1-11.012 9.05-20.402-18.35-9.305z"/><path d="m2046.9 733.634 11.01-3.5-1.36-7.085-4.61-27.659-.43.342-29.35-1.707-14.6 8.792 3.5 13.488 8.79.598.26 7.939 14.59-2.134z"/><path d="m2061.93 751.561-4.02-21.427-11 3.5-12.21-10.927-14.59 2.134.34 12.549-8.79 1.195-9.39-11.183-12.37 13.488v16.476l9.38-6.146 17.84 1.621 15.02.598 18.35 9.305.26-.598z"/><path d="m1910.19 1036.6 29.27 19.38 5.89-22.28z"/><path d="m1877.93 1016.62-14.08 5.29v-30.471l14.08-4.098z"/><path d="m1899.52 901.293-13.14 1.878-7.09 10.073h-8.44l-2.56 5.292-7.6-7.682-4.44 8.365h-8.36l-2.65 1.622 1.71 7.342-4.18 3.5 11.18 17.329 11.69-8.622 15.19 4.098 8.79 16.987 20.57 20.574 25.17 12.292 11.78 9.989 4.1 16.39-2.91 13.49 5.81.59 9.98-19.89-7.59-7.68 5.2-9.901 13.57 9.301 2.9-9.301-30.46-15.878 3.5-5.293-20.57-7-11.09-17.073-13.49-11.695v-15.793l10.24-2.134 4.01-13.829z"/><path d="m1943.73 928.866 6.23.597h14.59l13.74 3.244 4.86-2.902-4.86-9.22-5.72 1.537-13.14-5.122-8.96-3.756-9.65 4.951-6.14 7.085-15.11 2.22 2.31 7 10.58-5.293 8.19 17.671 21.68 14.427-16.98-26.037z"/><path d="m1950.72 905.305-2.56-13.659h7.09v-13.488l-22.11-5.804-5.37 5.804-10.67-1.963-8.62 12.549 1.71 5.292-9.48-2.731-23.98 4.524-.42-.171-2.14 5.635 11.61 2.646.6-.768 13.14-1.878 20.82 7.341-.42 1.366 11.35 1.195z"/><path d="m2036.83 1065.88v6.49l32.86 4.09 2.9-5.29-17.83-5.29z"/><path d="m2065 976.585v6.061l-8.53 1.366-16.9.939-26.97 6.744-8.62 9.985-5.72 10.84 3.42 4.1 9.98 10.59-1.79 11.18 11.78 12.29 12.29 2.31-3.5-11.1h6.99l-.59-7.68 6.48.59-14.68-18.18 4.1-4.1-8.19-15.788 10.49 6.998 7.69-2.9-6.49-8.196 26.46-2.39 1.36 2.817 6.49-13.915z"/><path d="m1876.31 895.659-12.46-3.671-7.6 2.049-4.01-2.305-.17.853h-8.96l1.54 5.805-8.62 9.305-2.22 8.622 9.3-5.122 2.13 9.646 2.65-1.621h8.36l4.44-8.366 7.59 7.683 2.57-5.293h8.44l6.49-9.305-11.61-2.646z"/><path d="m2054.58 949.781-25.94-1.708-8.45-6.146v6.488l4.95 8.963-4.95 7.342 1.71 6.317 7.68 8.451 1.37 7.597 8.61-2.134 16.9-.939 8.54-1.366v-6.061l4.26 1.964 13.74-5.976-3.32-9.305 8.79-12.89v-4.354l-19.38-4.097z"/><path d="m1986.66 952.256h-6.75l1.63 4.439-8.03 12.463 11.44 8.025 3.67-9.134 7.51-1.366v-5.378z"/><path d="m1981.53 940.39 1.63-6.744-2.82-2.219-2.05 1.28-13.74-3.244h-14.59l-6.23-.597 1.62 6.402 16.98 26.037 1.2.768 9.98 7.085 8.02-12.463-1.62-4.439h4.53l1.53-6.402z"/><path d="m2001.08 972.659-4.95-5.976-7.51 1.366-3.67 9.134 2.64 1.878v20.573l10.67 12.886 5.72-10.84 5.46-6.314-8.36-10.415z"/><path d="m1931.27 911.195-11.35-1.195-3.59 12.463 1.46-.256 1.79 5.293 15.1-2.22 6.15-7.085 9.64-4.951 1.28.512-3.92-7.598z"/><path d="m2001.08 984.951 8.36 10.415 3.16-3.671 18.35-4.61-1.37-7.597-7.68-8.451-.51-2.049-20.31 9.219z"/><path d="m2010.89 935.268-5.46-4.524-14-16.049-12.29 7.427 4.02 7.683-2.82 1.622 2.82 2.219-1.63 6.744 4.44 5.464-1.53 6.402h2.21l9.48 9.049v5.378l4.95 5.975v5.549l20.31-9.219-1.2-4.269 4.95-7.341-4.95-8.963v-6.488l1.88 1.366-1.88-8.025z"/><path d="m1984.69 883.024 3.93 2.817 7.51-6.744 15.53-1.536v-11.012h-18.69l-23.64 5.805-14.08 6.06v7.854l16.04 5.464z"/><path d="m2011.66 878.5v-.939l-15.53 1.537-7.51 6.743-3.93-2.817-13.4 8.708-16.04-5.464v5.378h-7.08l2.56 13.659-2.9.854 3.92 7.597 7.68 3.244 13.14 5.122 5.72-1.537.86 1.537 12.28-7.427 1.71 1.964 10.84-5.464 7.68-19.378 6.4-5.634z"/><path d="m1964.89 855.366-15.7-3.842-19.03-11.865.08.341-31.83 12.207 7.77 13.147 11.52 9.902-.6.939 10.67 1.964 5.38-5.805 22.1 5.805v.256l14.08-6.061 17.84-4.354-8.96-5.037z"/><path d="m2021.56 827.536-1.37-8.365 4.95-8.025-5.97-17.158-12.8-13.147h-55.13l-27.57 12.293-1.79 19.037 8.28 27.487 19.03 11.866 15.7 3.842 13.32 7.597 8.96 5.037 5.8-1.451h18.69v2.305l4.35-.598 7-14.683 4.95-9.988z"/><path d="m2078.91 905.305-14.85-22.964-25.18 9.391-13.74-8.11-7.68 1.878.6.683-6.4 5.634-7.68 19.378-10.84 5.463 12.29 14.086 5.46 4.524h9.3l1.88 8.025 6.57 4.78 25.95 1.707 14.51-7.853 19.37 4.097v-13.231l9.39-2.391.93-8.109-17.66 1.365z"/><path d="m2202.99 882.341.94-6.402-2.9-12.976 4.87-2.902-2.91-6.488-25-5.549-5.12-5.719-16.05 4.097-10.24-17.244-6.4 1.537-5.8-5.89-1.88-10.073h-16.98l-2.56 4.439-12.2 1.792-1.97 7.854h-10.32-19.46l-23.04-5.463-13.32 4.182-11.43-2.134.34 2.134 6.4 16.049-4.95 9.988-7 14.683-4.35.598v9.646l5.8 7 7.68-1.878 13.74 8.11 20.57-7.683v-8.11h9.64l9.14 4.951 6.4 1.451 7.76 13.488 8.37 10.5-11.53 1.366-4.6 13.146h-3.84l.34 2.817 17.66-1.365.26-1.879 15.79-18.182 15.87 8.792 9.39 3.586-9.99 8.792 10.59 3.5 1.1 8.793 29.96-8.793v-8.195l-15.87 2.305-11.1-9.39 13.49-7 16.38-5.89 16.22-4.952 2.47-8.536z"/><path d="m2089.23 907.695 11.52-1.366-8.36-10.5-7.77-13.488-6.4-1.451-9.13-4.951h-9.64v8.11l4.61-1.708 14.85 22.964 1.87 15.536h3.84z"/><path d="m2354.73 1653.2-18.77 28.08-14.68 16.48-25.18 7.59-11.18 17.59 7.08 21.77-14.08 31.07v21.09l19.89 25.26 24.06-8.19 36.96-114.99 5.89 1.71v-11.1z"/><path d="m1743.6 1112.23-5.29 19.38-34.65 19.72-21.59 1.96-10.58 11.01v10.76l147.21 101.16 24.07-3.76 67.67-48.14-7.93-12.3-12.29-2.39-7.6-24.58 4.1-3.25-8.79-62.48-9.64-17.25-9.73-15.88 9.73-10.92 1.11-31.16-27.23 5.38-38.15 2.39-43.95 16.39-10.41 2.39 13.91 41.57z"/><path d="m1924.27 1715.94 11.1 2.9h51.63l16.98 5.29 22.87 2.91 20.57-5.55-18.18-15.54v-42.26l26.97 3.59-2.65-27.74h-19.03l-4.69-43.28-26.97-3.5-3.58 14.59-21.68-2.3-8.79-23.56h-53.42l17.66 60.52-14.08 26.38-12.29 49.09 6.4 1.36z"/><path d="m2205.3 1241.3-.17-.51-14.6-10.58-15.87-34.92-11.09-26.72-17.67-25.78 3.59-1.79 20.48 25.87 3.5-5.89 2.47-9.65-14.17-32.01-1.19 1.7-36.95-3.5-15.19 8.8-45.75-9.91-3.67-1.45 7.77 126.34z"/><path d="m2169.96 1538.21h-23.72l2.13-15.2-25.94 2.82-5.8 15.02v7.6h4.95l1.79 33.04 10.58 8.36 6.32 19.81 30.89 13.91-.26-2.05h8.79l8.79 22.88v4.36h26.63l26.37-4.36 10.58-9.64v-2.14l-18.77-52.24 9.98-17.84-67.84-42.09z"/><path d="m2141.89 1814.45-2.98-33.38-26.97-4.69-24.07 16.99-11.18 14.68-5.2 14.08-33.46-4.69-24.06 15.79-12.89-22.28v40.46l-16.98 11.79-17.07-11.79-12.12 3.33 23.3 53.02-.6 24.67 22.27 7 71.01-14.09 65.63-61.55 14.42-31.75-4.7-3.5z"/><path d="m1608.17 1354.59 24.58 3.5 13.48 3.5-7-19.38-7.59-9.99-9.99-16.31-9.98-9.3h-20.57l-14.08 6.57-4.01.6-3.59 15.54 19.38 29.62 4.09-.85z"/><path d="m1653.31 1401.54-7.08-15.88-18.18 5.8-7.08 6.41 11.18 23.56 8.02 5.03 6.06-7.34z"/><path d="m1740.11 1420.83 7.59-18.18-3.75-14.69h-12.04l-17.58-7.77h-15.27l-18.78 4.27 3.5 22.88-8.79 18.78v7.09l12.89 4.09.34 18.44 36.01-11.44 16.64 4.87 2.14-8.96z"/><path d="m1671.49 1164.3 10.58-11.01 21.59-1.96 34.65-19.72 5.29-19.38h19.97l-13.91-41.57-7.25 1.71-22.27-.6-8.2-8.79-5.29 2.39-5.89 19.89-28.07 18.18-11.18 35.26-20.49 24.58-17.58 9.39 48.05-.51z"/><path d="m1623.44 1224.32h13.66v-31.67h34.39l2.47-15.88-2.47-1.71v-2.9l-48.05.51h-.08l-6.4 9.13-31.07 47.21-8.11 19.98h45.66z"/><path d="m1641.02 1315.91 8.2 5.81 11.69-5.81 13.06 5.81h37.37l3.5-10.84-3.5-4.27-7.68-100.82 9.31-2.22-39-26.8-2.48 15.88h-34.39v31.67h-13.66v24.67h-45.65l-1.88 4.69 8.79 9.39-11.69 50.71 4.01-.6 14.08-6.57h20.57l9.98 9.3 9.3 15.28 10.07-5.71z"/><path d="m2066.79 1241.3-7.77-126.34-23.98-9.13-26.97-.6-9.38 11.7 4.69 9.39-11.69 12.37-25.77-13.48-15.88-2.39-4.69-15.8-41.99-8.19-6.66 16.13-8.02 2.82v13.23l-4.86 6.32-3.5-1.11 6.4 45.58-4.1 3.25 7.6 24.58 12.29 2.39 7.93 12.3 24.24 7.08 25.94-9.39 93.71 48.66 12.46-4.69.85-24.68z"/><path d="m1888.68 1131.01v-13.23l8.02-2.82 6.66-16.13-.26-.09-17.58-12.29 11.7-11.69-2.31-9.39-5.89-6.49 6.49-12.89-9.39 2.39-5.29-6.49-11.44 2.22-1.1 31.16-9.73 10.93 9.73 15.87 9.64 17.25 2.39 16.9 3.5 1.11z"/><path d="m2219.21 1328.72 4.1 5.89 11.77-2.9 12.29 2.9 18.78 14.68 10.32 12.3 8.37-2.48.08-1.02-31.06-29.97-13.49-5.21-12.03-30.64-15.53 7.17-4.69 16.13v19.04h4.69z"/><path d="m2289.62 1397.95-8.2-18.95 1.28-1.96-13.57 3.15 3.5-11.6 2.05-9.14-8.53-10.16-18.78-14.68-12.29-2.9-11.77 2.9-4.1-5.89-6.4 5.89h-4.69v1.79l-5.98 11.7-14.93 27.57-8.79 29.37-10.76 5.2 3.25 5.3 8.79 6.48 15.53 22.88 6.91 9.99h17.07l10.58 7.6 15.88 5.55 12.88-14.35 17.16 5.3 19.2-9.39 19.2-2.39 32.43-35.77z"/><path d="m2301.9 1386.26-15.1-15.63-5.38 8.37 8.19 18.95 56.93 13.49-32.43 35.77-19.2 2.39-19.21 9.39-3.58-1.11-10.07 10.16v49.59l7.17 9.39 60.25-56.93 38.15-56.26 12.88-48.74z"/><path d="m2262.05 1468.04 10.07-10.16-13.57-4.18-12.89 14.34-15.87-5.55-10.58-7.6h-17.07l-6.91-9.99-2.39-3.58-14.68 14.42 12.89 27.32-6.66 11.95-8.53 11.44h3.84l-4.27 14 67.84 42.09 12.89-23.22 13.06-12.3-7.17-9.39z"/><path d="m2141.89 1478.37-5.97 16.64-11.7 20.83v9.82l24.16-2.65 2.3-16.56h25.18l8.53-11.44 6.66-11.95-12.29-26.21-36.87 5.64z"/><path d="m2170.9 1640.82-4.01 13.4-3.92 15.96 3.92 12.3 12.8 4.69-4.26 12.89 8.96 18.18 10.24-16.39v-18.78l-6.15-9.47v5.97h-8.79l-4.43-26.37-4.1-29.63-8.19-3.67v6.83z"/><path d="m2095.46 1768.69-2.9-12.89-12.29-9.98-12.97-18.78h-23.38l-25.86 4.69v41.06l-13.48 3.59v40.63l9.38 16.22 24.07-15.79 33.45 4.69 5.21-14.08 11.18-14.68 23.72-16.82-3.75-7.86z"/><path d="m2150.94 1759.9 6.74-15.19v-34.06l-27.48-8.8v-5.89l-18.26 3.5-2.99 7.69-22.87 19.89-16.99-5.21-2.04 5.21h.25l12.97 18.78 12.29 9.98 2.9 12.9h12.38l3.75 7.85.35-.17 26.96 4.69.09.6 11.95-12.97z"/><path d="m2047.42 1721.49-20.57 5.55-22.87-2.91-16.98-5.29h-51.64l-11.09-2.9-11.18 2.9-6.4-1.36-.6 2.56 20.48 38.16 11.78 48.06 16.39 48.14.17.34 12.12-3.33 17.06 11.78 16.99-11.78v-40.46l3.5 6.06v-40.63l13.48-3.59v-41.06l25.86-4.69h23.13l1.19-2.99-22.96-4.44z"/><path d="m1984.1 1462.49-12.98 5.55-9.38 19.72-32.35-2.99 1.28 9.99 11.18-3.5 3.5 10.67-9.39 8.7 7.09 6.41-7.09 21.17-14.08-6.49-15.19 6.49 8.79 3.5v6.74l-11.77 6.75 6.48 8.19 1.71 5.98 14.68-4.1.59-1.28h4.1 11.18l4.69 3.5 15.19-12.89v-16.39l19.12-17.76 4.95-33.89 9.39-18.52z"/><path d="m1914.28 1577.48h7l5.29-12.21-14.67 4.1z"/><path d="m1906.09 1483.15-20.91.34-3.67 14.77h24.58z"/><path d="m1915.48 1541.71-8.79-3.5 15.19-6.49 14.08 6.49 7.08-21.17-7.08-6.41 9.39-8.7-3.5-10.67-11.18 3.5-1.28-9.99-18.95-1.71-4.35.09v15.11h-24.58l-5.37 21.76 27.56 35.18 11.78-6.75z"/><path d="m2136.51 1468.04-9.64-14.94-20.82 2.64-7.85-9.13-26.12 2.39-32.85 1.79v8.8l-19.38-2.48-15.27-11.01-8.79 9.64-4.78 10.08 4.78 2.22-9.39 18.52-4.95 33.89-19.12 17.76v16.39l-15.19 12.89-4.69-3.5h-15.28l-5.89 13.49h-6.99l1.11 4.01h53.42l8.79 23.56 21.68 2.3 3.58-14.59 26.97 3.5 4.69 43.28h19.03l.69 7.42 10.75-2.56 15.87 8.8 13.49-2.65 17.58 16.73 12.29 2.9v-15.96h-9.99l-7-9.82 4.7-18.78-3.5-7.08 20.65-13.92-12.29-21.25-4.86-34.92h4.69v-7.6l5.8-15.02 1.8-.17v-9.82l11.69-20.83 5.97-16.64v-10.33z"/><path d="m2093.76 1441.32-19.97-20.49-9.99-10.59-13.48-11.86-8.79-24.5-.17-.34-13.32 12.12-7.59 12.72h-24.66l2.9 11.86-22.28 7.69-13.48 2.9-6.4-4.01-7.08 15.19-2.91 11.7 7.6 18.78 12.29 15.53 4.69-9.98 12.97-5.55 6.92 3.33 4.78-10.08 8.79-9.64 15.27 11.01 19.37 2.48v-8.8l32.86-1.79 26.12-2.39z"/><path d="m1612.01 1355.1-3.84-.51-15.28 3.5-4.1.85 11.7 17.93.93.93 13.32-8.19z"/><path d="m1667.39 1417.93v-7.69l-6.48-4.18h-9.47l-5.21 13.06-6.06 7.34 47.11 29.54.94-.26-.34-18.44-12.89-4.09v-7.09l3.84-8.19h-3.84z"/><path d="m1673.96 1361.59-8.62-2.22-12.03 4.78-7.85-4.61.77 2.05-13.49-3.5-20.73-2.99 2.73 14.51-13.32 8.19 19.04 19.04.51 1.03 7.08-6.41 18.18-5.8 7.08 15.88-1.88 4.52h9.48l6.48 4.18v7.69h7.6 3.84l4.95-10.59-3.5-22.88 8.45-1.87-13.74-9.05z"/><path d="m1893.81 1425.78 12.28 5.29 8.2-13.14 16.98-28.77 11.78-19.55-2.05-16.22-9.13-8.19-9.99 5.8-15.19-2.9-21.16 7.08-15.79-7.08-12.38 3.5-9.38-9.39-25.18 2.39-5.89 20.49 5.89 15.1-11.78 17.16v33.55l3.59-1.28 24.58 26.38 35.24-3.24 5.89-16.65z"/><path d="m1954.14 1462.49-7.6-18.78 2.9-11.7 8.28-17.58-12.97-15.28-4.69-9.74h17.66l-7.68-9.22v-18.6l-9.04-8.2 2.04 16.22-11.77 19.55-16.99 28.77-8.19 13.14-12.29-5.29-13.48 10.33-5.89 16.65 2.3-.26 11.18 19.98-2.73 11.01 25.26-.43 51.29 4.7 4.7-9.74z"/><path d="m1790.97 1353.39-2.22-11.1-10.5-4.69 3.16-10.67h-14.34l-26.96 15.36h-10.59l-14.68 23.9-2.47 14h1.96l17.58 7.77h8.79l2.9-14.42h30.04 12.81l15.27-8.45 5.63-4.27-7.42-10.93z"/><path d="m1781.41 1406.06v-20.4l-7.09-12.12h-.68-30.04l-2.9 14.42h3.24l3.76 14.69-7.6 18.18 2.9 19.38-2.13 8.96 11.52 3.33 36.1-13.23-7.08-12.81z"/><path d="m1816.91 1365.09 1.03-3.42-6.92-3.58-9.3 7-15.28 8.45h-1.53l8.53 9.73 3.25 15.88-3.25 26.63 4.18 10.07 13.4-4.95v-33.55l11.78-17.16z"/><path d="m1796.69 1399.15-3.25-15.88-8.53-9.73h-10.58l7.08 12.12v20.4 20.4l7.08 12.81 9.14-3.42-4.19-10.07z"/><path d="m1822.8 1317.96 3.16-23.81v-19.04l-7.26 1.11-105.74-72.65-9.3 2.22 7.68 100.82 3.5 4.27-3.5 10.84h-37.38l-13.05-5.81-11.69 5.81-8.2-5.81v9.57l-10.07 5.72.68 1.02 7.6 9.99 6.23 17.33 7.85 4.61 12.03-4.78 8.62 2.22 1.03 11.95 13.74 9.05 10.32-2.4h13.32l2.47-14 14.68-23.9h10.58l26.97-15.36h14.34l-.43 1.45 14.42-1.45z"/><path d="m2044.43 1318.82h11.78l-3.59-49-92-47.81-14.33 5.12 5.54 14.17.77 9.39 6.23 9.82-4.26 15.71v30.39l-23.05 22.11v16.65l.34-.18 18.18 16.4v18.6l7.68 9.22h-17.66l4.69 9.74 12.97 15.28-1.19 2.39 6.4 4.01 13.48-2.9 22.28-7.69-2.91-11.86h24.67l7.59-12.72 13.32-12.12-9.22-18.36 2.9-12.97z"/><path d="m1954.57 1306.61v-30.39l4.26-15.71-6.23-9.81-.76-9.4-5.55-14.17-11.61 4.27-24.23-7.08-67.68 48.14-16.81 2.65v19.04l-3.16 23.81-27.39 8.97-14.43 1.45-2.73 9.22 10.5 4.69 2.22 11.1 8.96-3.5 7.42 10.93 3.67-2.73 6.92 3.58 4.86-17.07 25.18-2.39 9.38 9.39 12.38-3.5 15.79 7.08 21.16-7.08 15.19 2.9 9.65-5.63v-16.65z"/><path d="m2165.44 1677.95-2.47-7.77 3.92-15.96 4.02-13.4-7.94-14.09v-6.83l-22.7-10.24 1.62 4.78h-7.08l-5.72-9.82-20.65 13.92 3.49 7.08-4.69 18.78 7 9.82h9.98v15.96l-12.29-2.9-17.58-16.73-13.48 2.65-15.87-8.8-10.76 2.56 1.97 20.32-26.97-3.59v42.26l16.04 13.66 22.96 4.44.85-2.22 16.99 5.21 22.87-19.89 2.98-7.69 16.48-3.16 1.79-6.23z"/><path d="m2241.48 1644.4-26.37 4.36h-26.62v24.84l6.14 9.47v18.78l-10.24 16.39-8.96-18.18 4.27-12.89-12.8-4.69-1.45-4.53-35.25 12.12-1.79 6.23 1.79-.34v5.89l27.48 8.8v34.06l-6.74 15.19v8.8l-11.95 12.97 2.9 32.78 4.35 14.09 4.7 3.5 2.64-5.81-1.19-6.49 32.85-17.58v-24.07l-5.88-31.08 68.61-49.25 4.1-21.17v-41.83z"/><path d="m2269.13 1380.19 13.57-3.15 4.1-6.41-2.48-2.56.52-8.96-8.37 2.48-1.79-2.14-2.05 9.14z"/><path d="m2227.49 1290.05-14.68-12.38-7.51-36.37h-137.66l-.85 24.68-12.46 4.69-1.71-.85 3.59 49h-11.78l-9.39 23.39-2.9 12.97 9.39 18.7 8.7 24.33 18.01-11.7h31.83l16.56-.85 20.22-7.86 20.83-24.41 17.75 20.15 11.6 2.73.18-.6 14.93-27.57 5.97-11.7v-20.83l4.7-16.13 15.53-7.17z"/><path d="m2157.68 1353.39-20.83 24.41-20.22 7.86-16.56.85h-31.83l-18.01 11.7.09.17 13.48 11.86 9.99 10.59 19.97 20.49 12.29 14.42 20.82-2.64 9.64 14.94h5.38v-5.55l36.87-5.64-.6-1.11 14.68-14.42-13.14-19.3-8.79-6.48-3.25-5.3 10.76-5.2 8.62-28.77-11.61-2.73z"/></g></svg>