<svg fill="none" height="19" viewBox="0 0 22 19" width="22" xmlns="http://www.w3.org/2000/svg"><path d="m16.6146 5.53433c-.4011-.21493-.9167-.21493-1.375 0l-3.2084 1.77313-2.17703 1.12836-3.15105 1.77318c-.40104.2149-.91666.2149-1.375 0l-2.46354-1.39706c-.40104-.21493-.6875-.64478-.6875-1.12836v-2.68657c0-.42985.22917-.8597.6875-1.12835l2.46354-1.34329c.40105-.21492.91667-.21492 1.375 0l2.46355 1.39702c.40104.21492.6875.64477.6875 1.12836v1.77313l2.17703-1.18209v-1.82686c0-.42986-.2291-.85971-.6875-1.12836l-4.58328-2.525376c-.40105-.2149253-.91667-.2149253-1.375 0l-4.69792 2.579106c-.458333.21492-.6875.64477-.6875 1.07463v5.05074c0 .42985.229167.8597.6875 1.12836l4.64062 2.52537c.40105.2149.91667.2149 1.375 0l3.15105-1.7194 2.17703-1.18209 3.1511-1.7194c.401-.21493.9167-.21493 1.375 0l2.4635 1.34328c.4011.21493.6875.64478.6875 1.12831v2.6866c0 .4299-.2291.8597-.6875 1.1284l-2.4062 1.3433c-.4011.2149-.9167.2149-1.375 0l-2.4636-1.3433c-.401-.215-.6875-.6448-.6875-1.1284v-1.7194l-2.17704 1.1821v1.7731c0 .4299.22914.8597.68754 1.1284l4.6406 2.5254c.401.2149.9166.2149 1.375 0l4.6406-2.5254c.401-.2149.6875-.6448.6875-1.1284v-5.10444c0-.42985-.2292-.8597-.6875-1.12836z" fill="#fff"/></svg>