<svg fill="none" height="91" viewBox="0 0 101 91" width="101" xmlns="http://www.w3.org/2000/svg" xmlns:xlink="http://www.w3.org/1999/xlink"><filter id="a" color-interpolation-filters="sRGB" filterUnits="userSpaceOnUse" height="108.842" width="66.6519" x="-4.38556" y="-3.98187"><feFlood flood-opacity="0" result="BackgroundImageFix"/><feColorMatrix in="SourceAlpha" result="hardAlpha" type="matrix" values="0 0 0 0 0 0 0 0 0 0 0 0 0 0 0 0 0 0 127 0"/><feOffset/><feGaussianBlur stdDeviation="2.5"/><feComposite in2="hardAlpha" operator="out"/><feColorMatrix type="matrix" values="0 0 0 0 1 0 0 0 0 1 0 0 0 0 1 0 0 0 0.24 0"/><feBlend in2="BackgroundImageFix" mode="normal" result="effect1_dropShadow_42_99"/><feBlend in="SourceGraphic" in2="effect1_dropShadow_42_99" mode="normal" result="shape"/></filter><filter id="b" color-interpolation-filters="sRGB" filterUnits="userSpaceOnUse" height="109.523" width="66.652" x="38.733" y="19.1519"><feFlood flood-opacity="0" result="BackgroundImageFix"/><feColorMatrix in="SourceAlpha" result="hardAlpha" type="matrix" values="0 0 0 0 0 0 0 0 0 0 0 0 0 0 0 0 0 0 127 0"/><feOffset/><feGaussianBlur stdDeviation="2.5"/><feComposite in2="hardAlpha" operator="out"/><feColorMatrix type="matrix" values="0 0 0 0 1 0 0 0 0 1 0 0 0 0 1 0 0 0 0.24 0"/><feBlend in2="BackgroundImageFix" mode="normal" result="effect1_dropShadow_42_99"/><feBlend in="SourceGraphic" in2="effect1_dropShadow_42_99" mode="normal" result="shape"/></filter><linearGradient id="c" gradientUnits="userSpaceOnUse" x1="16.0372" x2="86.1521" y1="20.0387" y2="93.5651"><stop offset="0" stop-color="#1a20a3"/><stop offset="1" stop-color="#3c3cff"/></linearGradient><linearGradient id="d"><stop offset="0" stop-color="#fff"/><stop offset=".707547" stop-color="#33f"/></linearGradient><linearGradient id="e" gradientUnits="userSpaceOnUse" x1="-.574923" x2="39.4056" xlink:href="#d" y1="27.2518" y2="49.6391"/><linearGradient id="f" gradientUnits="userSpaceOnUse" x1="101.574" x2="61.5938" xlink:href="#d" y1="86.3013" y2="63.9139"/><clipPath id="g"><path d="m0 0h101v91h-101z"/></clipPath><g clip-path="url(#g)"><path d="m43.5353 3.99441c4.3138-2.47395 9.6161-2.47395 13.9299 0l35.4997 20.35919c4.3514 2.4955 7.0351 7.1284 7.035 12.1446l-.0004 54.0037c0 5.0162-2.6837 9.6491-7.0351 12.1441l-35.4997 20.36c-4.3138 2.474-9.6161 2.474-13.9299 0l-35.49967-20.36c-4.3514-2.495-7.03511-7.128-7.03507-12.1442l.00043-54.0037c.00004-5.0162 2.68374-9.649 7.03507-12.1445z" fill="url(#c)"/><g filter="url(#a)"><path d="m56.5163 3.29903c-3.5324-2.04121-7.8859-2.04121-11.4183 0l-36.7381 21.22907c-4.32906 2.5016-6.99546 7.1219-6.99546 12.1217v53.6448c0 3.636 1.93908 6.996 5.08729 8.8152" stroke="url(#e)" stroke-linecap="round" stroke-width="1.5"/></g><g filter="url(#b)"><path d="m44.4832 121.394c3.5324 2.041 7.8858 2.041 11.4183 0l36.738-21.229c4.3291-2.5018 6.9955-7.1222 6.9955-12.122v-54.3257c0-3.636-1.9391-6.9961-5.0873-8.8153" stroke="url(#f)" stroke-linecap="round" stroke-width="1.5"/></g></g></svg>