<svg fill="none" height="26" viewBox="0 0 18 26" width="18" xmlns="http://www.w3.org/2000/svg"><g fill="#fff"><path d="m10.47 2.69099c2.1073.62188 3.9644 1.8744 5.312 3.58274l-.004.00982c1.2069 1.53181 1.9523 3.3653 2.1515 5.29225.1993 1.927-.1557 3.8702-1.0244 5.609-.8688 1.7388-2.2167 3.2035-3.8905 4.2278s-3.60646 1.5671-5.57861 1.5668c-.53087.0004-1.06102-.0384-1.586-.1158l-.54 2.357-1.504-.3319.54-2.3571.338-1.483c.4957.1558 1.0043.2689 1.52.3379.41289.056.82919.0842 1.246.0844 2.38689-.0057 4.67421-.9401 6.36111-2.5986 1.6868-1.6586 2.6357-3.906 2.6389-6.2502.0024-1.5026-.3888-2.98058-1.136-4.29183-1.1222-1.98558-2.9768-3.47308-5.182-4.1563-.49187-.1527-.99649-.26247-1.50801-.32802l.338-1.48888.54-2.35707 1.50801.333918z"/><path d="m3.30599 6.52434c1.22299-.80297 2.66088-1.23194 4.132-1.23272v.01375c.97823-.00259 1.94733.18466 2.85161.551.9044.36634 1.7261.90455 2.418 1.5837.6919.67916 1.2403 1.48588 1.6138 2.37383.3735.8879.5647 1.8396.5626 2.8003-.0028 1.4448-.4415 2.8564-1.2607 4.0565-.8193 1.2-1.9823 2.1347-3.3421 2.6859-1.3599.5512-2.85559.6942-4.29816.4109-1.44258-.2832-2.76731-.98-3.80686-2.0023-1.03954-1.0223-1.747245-2.3243-2.033715-3.7415-.28647-1.4171-.13884891-2.8859.424214-4.22064.563061-1.33479 1.516311-2.47574 2.739311-3.27872z"/></g></svg>