<svg fill="none" height="20" viewBox="0 0 17 20" width="17" xmlns="http://www.w3.org/2000/svg"><path clip-rule="evenodd" d="m16.2695 9.64559c-.7305-.85306-1.0624-1.59333-1.0624-2.84926v-.42603c0-.12916-.0024-.25469-.0071-.37687-.0661.00436-.1328.00657-.2.00657-1.6569 0-3-1.34315-3-3 0-.64962.2065-1.25101.5574-1.74213-1.1691-.803566-2.60092-1.25787-4.01218-1.25787h-.08945c-2.03642 0-4.09471.941697-5.37877 2.51186-.86367 1.07666-1.28308 2.17648-1.28308 3.85844v.42603c0 1.25593-.31008 1.9962-1.063432 2.84926-.552587.62851-.730488 1.43521-.730488 2.31041 0 .8742.28822 1.7041.863666 2.3779.752354.8078 1.814794 1.3234 2.900084 1.4131 1.5713.1793 3.14259.2467 4.73675.2467 1.5932 0 3.1654-.1128 4.7367-.2467 1.0843-.0897 2.1468-.6053 2.9001-1.4131.5755-.6738.8627-1.5037.8627-2.3779 0-.8752-.1769-1.6819-.7305-2.31041zm-9.80632 7.58231c-.42736.0987-.88951.3294-.88951.8329.02485.4794.30611.9045.69571 1.1734.50289.3938 1.09424.6425 1.71341.7322.32997.0453.66589.0443 1.00778 0 .61818-.0897 1.20953-.3384 1.71343-.7312.3886-.2699.6698-.695.6947-1.1744 0-.5035-.4621-.7342-.8895-.8329-.4999-.1057-3.54611-.1057-4.04602 0z" fill="#fff" fill-rule="evenodd"/><circle cx="15" cy="3" fill="#fcc933" r="2"/></svg>