<svg width="27" height="26" viewBox="0 0 27 26" fill="none" xmlns="http://www.w3.org/2000/svg">
<path d="M5.14699 22.9312C5.13282 22.9312 5.11974 22.9312 5.10448 22.9302C4.76118 22.9128 4.42442 22.8392 4.10401 22.7102C2.52701 22.0732 1.76631 20.2825 2.40604 18.716L10.3848 4.82116C10.6594 4.32716 11.0757 3.91332 11.5836 3.63382C13.0712 2.81482 14.9523 3.35324 15.7751 4.83091L23.7015 18.6196C23.8781 19.0323 23.9533 19.3682 23.9718 19.7105C24.0143 20.5295 23.7331 21.3149 23.1817 21.9227C22.6302 22.5304 21.8728 22.889 21.0499 22.9302L5.22546 22.9312H5.14699Z" fill="#CD3539"/>
<path fill-rule="evenodd" clip-rule="evenodd" d="M12.1239 10.8559C12.1239 10.3337 12.5522 9.90795 13.0775 9.90795C13.6028 9.90795 14.0311 10.3337 14.0311 10.8559V13.9195C14.0311 14.4428 13.6028 14.8675 13.0775 14.8675C12.5522 14.8675 12.1239 14.4428 12.1239 13.9195V10.8559ZM12.1239 17.6257C12.1239 17.1003 12.5522 16.6724 13.0775 16.6724C13.6028 16.6724 14.0311 17.0949 14.0311 17.6138C14.0311 18.1479 13.6028 18.5736 13.0775 18.5736C12.5522 18.5736 12.1239 18.1479 12.1239 17.6257Z" fill="white"/>
</svg>
