<svg fill="none" height="53" viewBox="0 0 48 53" width="48" xmlns="http://www.w3.org/2000/svg" xmlns:xlink="http://www.w3.org/1999/xlink"><filter id="a" color-interpolation-filters="sRGB" filterUnits="userSpaceOnUse" height="42.3235" width="29.2927" x=".852896" y=".431266"><feFlood flood-opacity="0" result="BackgroundImageFix"/><feColorMatrix in="SourceAlpha" result="hardAlpha" type="matrix" values="0 0 0 0 0 0 0 0 0 0 0 0 0 0 0 0 0 0 127 0"/><feOffset/><feGaussianBlur stdDeviation="1.43293"/><feComposite in2="hardAlpha" operator="out"/><feColorMatrix type="matrix" values="0 0 0 0 1 0 0 0 0 1 0 0 0 0 1 0 0 0 0.24 0"/><feBlend in2="BackgroundImageFix" mode="normal" result="effect1_dropShadow_1356_1731"/><feBlend in="SourceGraphic" in2="effect1_dropShadow_1356_1731" mode="normal" result="shape"/></filter><filter id="b" color-interpolation-filters="sRGB" filterUnits="userSpaceOnUse" height="42.3235" width="29.2927" x="18.6737" y="10.1886"><feFlood flood-opacity="0" result="BackgroundImageFix"/><feColorMatrix in="SourceAlpha" result="hardAlpha" type="matrix" values="0 0 0 0 0 0 0 0 0 0 0 0 0 0 0 0 0 0 127 0"/><feOffset/><feGaussianBlur stdDeviation="1.43293"/><feComposite in2="hardAlpha" operator="out"/><feColorMatrix type="matrix" values="0 0 0 0 1 0 0 0 0 1 0 0 0 0 1 0 0 0 0.24 0"/><feBlend in2="BackgroundImageFix" mode="normal" result="effect1_dropShadow_1356_1731"/><feBlend in="SourceGraphic" in2="effect1_dropShadow_1356_1731" mode="normal" result="shape"/></filter><linearGradient id="c" gradientUnits="userSpaceOnUse" x1="10.3309" x2="39.3603" y1="11.2941" y2="41.5331"><stop offset="0" stop-color="#1a20a3"/><stop offset="1" stop-color="#3c3cff"/></linearGradient><linearGradient id="d"><stop offset="0" stop-color="#fff"/><stop offset=".707547" stop-color="#33f"/></linearGradient><linearGradient id="e" gradientUnits="userSpaceOnUse" x1="3.35016" x2="19.8002" xlink:href="#d" y1="14.2077" y2="23.4269"/><linearGradient id="f" gradientUnits="userSpaceOnUse" x1="45.4692" x2="29.0192" xlink:href="#d" y1="38.7357" y2="29.5164"/><path d="m20.4878 5.31644c2.4828-1.43342 5.5416-1.43342 8.0244 0l12.3272 7.11716c2.4828 1.4334 4.0122 4.0824 4.0122 6.9493v14.2342c0 2.8669-1.5294 5.5159-4.0122 6.9493l-12.3272 7.1172c-2.4828 1.4334-5.5416 1.4334-8.0244 0l-12.3272-7.1172c-2.48276-1.4334-4.0122-4.0824-4.0122-6.9493v-14.2342c0-2.8669 1.52944-5.5159 4.0122-6.9493z" fill="url(#c)"/><g filter="url(#a)"><path d="m26.85 4.35677c-1.4542-.83957-3.2458-.83957-4.7 0l-13.98937 8.07683c-2.48275 1.4334-4.01219 4.0824-4.01219 6.9493v16.4491c0 1.4963.79824 2.8789 2.09403 3.627" stroke="url(#e)" stroke-linecap="round" stroke-width=".859756"/></g><g filter="url(#b)"><path d="m21.9693 48.5866c1.4542.8396 3.2458.8396 4.7 0l13.9894-8.0768c2.4828-1.4334 4.0122-4.0825 4.0122-6.9493v-16.4492c0-1.4962-.7982-2.8788-2.094-3.6269" stroke="url(#f)" stroke-linecap="round" stroke-width=".859756"/></g><g stroke-linecap="round" stroke-width="1.9515"><path d="m19.9463 24.99 4.5535 3.903 4.5535-3.903" stroke="#fff"/><path d="m19.9463 29.543 4.5535 3.903 4.5535-3.903" stroke="#d6d6ff"/><path d="m19.9463 34.0972 4.5535 3.903 4.5535-3.903" stroke="#b1b1ff"/></g><path d="m24.2032 13.9419c.1149-.2561.4785-.2561.5934 0l1.0707 2.3855c.0473.1054.1469.1778.2618.1902l2.5996.2811c.2791.0302.3914.376.1834.5644l-1.9379 1.7555c-.0856.0775-.1237.1947-.1.3077l.536 2.5593c.0575.2747-.2366.4884-.4802.3488l-2.2683-1.3006c-.1002-.0575-.2234-.0575-.3236 0l-2.2684 1.3006c-.2435.1396-.5376-.0741-.4801-.3488l.536-2.5593c.0237-.113-.0144-.2302-.1-.3077l-1.9379-1.7555c-.2081-.1884-.0957-.5342.1834-.5644l2.5996-.2811c.1149-.0124.2145-.0848.2618-.1902z" fill="#fff"/></svg>