<svg fill="none" height="28" viewBox="0 0 28 28" width="28" xmlns="http://www.w3.org/2000/svg"><path d="m1.8125 9.3125c.24864 0 .4871-.09877.66291-.27459.17582-.17581.27459-.41427.27459-.66291v-4.6875c0-.24864.09877-.4871.27459-.66291.17581-.17582.41427-.27459.66291-.27459h5.15625c.24864 0 .4871-.09877.66291-.27459.17582-.17581.27459-.41427.27459-.66291s-.09877-.4871-.27459-.66291c-.17581-.175818-.41427-.27459-.66291-.27459h-5.15625c-.74592 0-1.46129.29632-1.98874.82376-.52744.52745-.82376 1.24282-.82376 1.98874v4.6875c0 .24864.098772.4871.27459.66291.17581.17582.41427.27459.66291.27459zm22.5-8.4375h-5.1563c-.2486 0-.487.098772-.6629.27459-.1758.17581-.2745.41427-.2745.66291s.0987.4871.2745.66291c.1759.17582.4143.27459.6629.27459h5.1563c.2486 0 .4871.09877.6629.27459.1758.17581.2746.41427.2746.66291v4.6875c0 .24864.0988.4871.2746.66291.1758.17582.4143.27459.6629.27459s.4871-.09877.6629-.27459c.1758-.17581.2746-.41427.2746-.66291v-4.6875c0-.74592-.2963-1.46129-.8238-1.98874-.5274-.52744-1.2428-.82376-1.9887-.82376zm1.875 17.8125c-.2486 0-.4871.0988-.6629.2746s-.2746.4143-.2746.6629v4.6875c0 .2486-.0988.4871-.2746.6629s-.4143.2746-.6629.2746h-5.1563c-.2486 0-.487.0988-.6629.2746-.1758.1758-.2745.4143-.2745.6629s.0987.4871.2745.6629c.1759.1758.4143.2746.6629.2746h5.1563c.7459 0 1.4613-.2963 1.9887-.8238.5275-.5274.8238-1.2428.8238-1.9887v-4.6875c0-.2486-.0988-.4871-.2746-.6629s-.4143-.2746-.6629-.2746zm-17.34375 6.5625h-5.15625c-.24864 0-.4871-.0988-.66291-.2746-.17582-.1758-.27459-.4143-.27459-.6629v-4.6875c0-.2486-.09877-.4871-.27459-.6629-.17581-.1758-.41427-.2746-.66291-.2746s-.4871.0988-.66291.2746c-.175818.1758-.27459.4143-.27459.6629v4.6875c0 .7459.29632 1.4613.82376 1.9887.52745.5275 1.24282.8238 1.98874.8238h5.15625c.24864 0 .4871-.0988.66291-.2746.17582-.1758.27459-.4143.27459-.6629s-.09877-.4871-.27459-.6629c-.17581-.1758-.41427-.2746-.66291-.2746zm17.34375-12.1875h-24.375c-.24864 0-.4871.0988-.66291.2746-.175818.1758-.27459.4143-.27459.6629s.098772.4871.27459.6629c.17581.1758.41427.2746.66291.2746h24.375c.2486 0 .4871-.0988.6629-.2746s.2746-.4143.2746-.6629-.0988-.4871-.2746-.6629-.4143-.2746-.6629-.2746z" fill="#fff"/></svg>