<svg fill="none" height="24" viewBox="0 0 24 24" width="24" xmlns="http://www.w3.org/2000/svg" xmlns:xlink="http://www.w3.org/1999/xlink"><clipPath id="a"><path d="m0 0h24v24h-24z"/></clipPath><g clip-path="url(#a)" fill="#fff"><path d="m23.3977 1.01383c-.0353-.093987-.0902-.179335-.1612-.250308-.071-.070974-.1563-.125927-.2503-.161165-3.4792-1.304718-7.4249-.450046-10.0524 2.177393l-1.9612 1.96125c-.8224.82242-.8224 2.16065 0 2.98312l.4972.49716.2638-.26381c1.2001-1.2001 2.6855-2.1181 4.2956-2.65477.7628-.2543 1.5899-.05906 2.1586.50958.5686.56859.7639 1.3957.5096 2.15855-.5367 1.61015-1.4548 3.09557-2.6548 4.29557l-.2638.2638.4972.4972c.8225.8225 2.1606.8224 2.9831 0l1.9613-1.9612c2.6273-2.62747 3.482-6.57322 2.1773-10.05237z"/><path d="m17.3632 7.52618c.1832-.54966-.3397-1.0726-.8894-.88941-1.4114.47047-2.6938 1.26308-3.7458 2.31506l-.6722.67215 2.3202 2.32022.6722-.6722c1.052-1.052 1.8446-2.33444 2.315-3.74582zm-6.3018 3.09222-7.63662 7.6366c-.82744-.6619-2.04155-.6101-2.807952.1563-.822422.8224-.822469 2.1607 0 2.9831l1.988762 1.9887c.82247.8225 2.16066.8225 2.98313 0 .7664-.7664.8183-1.9805.15628-2.8079l7.6366-7.6366zm-6.46709 11.7704c-.27412.2742-.72018.2742-.99436 0l-1.98872-1.9887c-.27417-.2742-.27417-.7203 0-.9944.27418-.2742.72019-.2742.99436 0l1.98872 1.9887c.27417.2742.27413.7203 0 .9944z"/></g></svg>