<svg fill="none" height="30" viewBox="0 0 30 30" width="30" xmlns="http://www.w3.org/2000/svg" xmlns:xlink="http://www.w3.org/1999/xlink"><clipPath id="a"><path d="m3 3h24v24h-24z"/></clipPath><g clip-path="url(#a)" fill="#fff"><path d="m26.3973 4.01383c-.0352-.09399-.0902-.17933-.1611-.25031-.071-.07097-.1564-.12592-.2503-.16116-3.4792-1.30472-7.425-.45005-10.0524 2.17739l-1.9612 1.96125c-.8224.82242-.8225 2.16065 0 2.9831l.4972.4972.2638-.2638c1.2001-1.20013 2.6854-2.11813 4.2955-2.6548.7629-.2543 1.59-.05906 2.1586.50958.5686.56859.7639 1.39572.5097 2.15852-.5368 1.6102-1.4548 3.0956-2.6548 4.2956l-.2639.2638.4972.4972c.8225.8225 2.1607.8224 2.9832 0l1.9612-1.9612c2.6273-2.6275 3.482-6.57322 2.1773-10.05237z"/><path d="m20.3633 10.5262c.1831-.54968-.3398-1.07262-.8895-.88943-1.4113.47043-2.6938 1.26313-3.7458 2.31503l-.6722.6722 2.3203 2.3202.6721-.6722c1.052-1.052 1.8446-2.3344 2.3151-3.7458zm-6.3019 3.0922-7.63661 7.6366c-.82744-.6619-2.04155-.6101-2.80796.1563-.82242.8224-.82246 2.1607 0 2.9831l1.98877 1.9887c.82247.8225 2.16066.8225 2.98312 0 .76641-.7664.8183-1.9805.15629-2.8079l7.63659-7.6366zm-6.46708 11.7704c-.27413.2742-.72019.2742-.99436 0l-1.98872-1.9887c-.27417-.2742-.27417-.7203 0-.9944.27417-.2742.72019-.2742.99436 0l1.98872 1.9887c.27417.2742.27412.7203 0 .9944z"/></g></svg>