<svg fill="none" height="20" viewBox="0 0 20 20" width="20" xmlns="http://www.w3.org/2000/svg" xmlns:xlink="http://www.w3.org/1999/xlink"><clipPath id="a"><path d="m2.88867 2.88867h14.2222v14.2222h-14.2222z"/></clipPath><g clip-path="url(#a)"><path clip-rule="evenodd" d="m8.91606 2.99951h3.71334c1.8566 0 3.3709 1.40005 3.3709 3.10812v7.78427c0 1.7151-1.5143 3.1081-3.3862 3.1081h-3.70565c-1.85666 0-3.3785-1.393-3.3785-3.1011v-3.3601h4.71775l-1.21751 1.12c-.22827.21-.22827.5531 0 .7631.11414.105.26633.154.41851.154.14458 0 .29676-.049.4109-.154l2.2219-2.0371c.1141-.098.175-.238.175-.38502 0-.14001-.0609-.28001-.175-.37802l-2.2219-2.03707c-.22828-.21001-.60113-.21001-.82941 0-.22827.21-.22827.55302 0 .76302l1.21751 1.11305h-4.71771v1.07784h-2.95412c-.31411 0-.57587-.238-.57587-.53901 0-.29401.26176-.53902.57587-.53902h2.95408v-3.34594c0-1.71507 1.52184-3.11512 3.38611-3.11512z" fill="#777ba0" fill-rule="evenodd"/></g></svg>