<svg fill="none" height="14" viewBox="0 0 14 14" width="14" xmlns="http://www.w3.org/2000/svg"><g fill="#777ba0"><path clip-rule="evenodd" d="m13.9974 4.4625h-2.9643c-1.37941.00243-2.49691 1.09201-2.4994 2.43699-.00187 1.34802 1.11688 2.44244 2.4994 2.44426h2.9668v.21416c0 2.35149-1.4255 3.74189-3.8379 3.74189h-6.32355c-2.41295 0-3.83845-1.3904-3.83845-3.74189v-5.12149c0-2.35145 1.4255-3.736469 3.83845-3.736469h6.32115c2.4123 0 3.8378 1.385019 3.8378 3.736469zm-10.67989-.00548h3.94796.00249.00498c.29555-.00121.53449-.23599.53324-.52477-.00124-.28816-.24266-.52112-.53822-.51991h-3.95045c-.29369.00121-.53199.23357-.53324.52052-.00124.28817.23769.52295.53324.52416z" fill-rule="evenodd"/><path d="m9.82617 7.20759c.14639.66582.73013 1.13427 1.39663 1.12209h2.2749c.2773 0 .5022-.22966.5022-.51353v-1.77207c-.0005-.28327-.2249-.51353-.5022-.51414h-2.3285c-.7581.00243-1.3704.63171-1.36921 1.40718 0 .09077.00893.18153.02618.27047"/><circle cx="11.1998" cy="6.92988" r=".699994"/></g></svg>